<svg id="SAAS" xmlns="http://www.w3.org/2000/svg" viewBox="0 0 600 400"><defs><style>.cls-1{fill:#fbf4eb;}.cls-2{fill:#c8e7f0;}.cls-3{fill:#87a8b9;}.cls-4{fill:#f5c05c;}.cls-5{fill:#88a9ba;}.cls-6{fill:#fdfdfd;}.cls-7{fill:#8dacbd;}.cls-8{fill:#d4ecf3;}.cls-9{fill:#92b0bf;}.cls-10{fill:#f7d086;}.cls-11{fill:#d0dde3;}.cls-12{fill:#fae3b5;}.cls-13{fill:#98b4c3;}.cls-14{fill:#aac2ce;}.cls-15{fill:#fcf1dc;}.cls-16{fill:#89a9ba;}.cls-17{fill:#8aaaba;}.cls-18{fill:#e0f1f6;}.cls-19{fill:#adc3cf;}.cls-20{fill:#f8d48f;}.cls-21{fill:#f5c568;}.cls-22{fill:#fcf1db;}.cls-23{fill:#fae7c2;}.cls-24{fill:#f1f0eb;}.cls-25{fill:#88a8b9;}.cls-26{fill:#89aaba;}.cls-27{fill:#efc56e;}.cls-28{fill:#92b2c2;}.cls-29{fill:#90b1c1;}.cls-30{fill:#eec672;}.cls-31{fill:#f7fbfc;}.cls-32{fill:#99b9c8;}.cls-33{fill:#b0cfdb;}.cls-34{fill:#97b8c7;}.cls-35{fill:#d4ddca;}.cls-36{fill:#ecf6f9;}.cls-37{fill:#9bbbc9;}.cls-38{fill:#dff0f6;}.cls-39{fill:#dbebee;}.cls-40{fill:#98b9c7;}.cls-41{fill:#a9c9d5;}.cls-42{fill:#b7d7e2;}.cls-43{fill:#b9d9e3;}.cls-44{fill:#ddf0f5;}.cls-45{fill:#d8ddc8;}.cls-46{fill:#e2f2f7;}.cls-47{fill:#a5c5d2;}.cls-48{fill:#a6c6d3;}.cls-49{fill:#fbfcfc;}.cls-50{fill:#f0c46b;}.cls-51{fill:#eec671;}.cls-52{fill:#e0d2a1;}.cls-53{fill:#d3ddcb;}.cls-54{fill:#ecc778;}.cls-55{fill:#d7e2e7;}.cls-56{fill:#edc775;}.cls-57{fill:#efc570;}.cls-58{fill:#e0d2a0;}.cls-59{fill:#fefefe;}.cls-60{fill:#eaca80;}.cls-61{fill:#fefcf8;}.cls-62{fill:#e6cc8c;}.cls-63{fill:#fdfdfe;}.cls-64{fill:#aac8d4;}.cls-65{fill:#c7d4d9;}.cls-66{fill:#c9e7f0;}.cls-67{fill:#cee8f0;}.cls-68{fill:#d8eaee;}.cls-69{fill:#ddeced;}.cls-70{fill:#d9ebee;}.cls-71{fill:#d1e9ef;}.cls-72{fill:#c5e4ee;}.cls-73{fill:#aac9d6;}.cls-74{fill:#f5a55c;}.cls-75{fill:#ab4a55;}.cls-75,.cls-76,.cls-77,.cls-78,.cls-79,.cls-80,.cls-81,.cls-82,.cls-83,.cls-85{fill-rule:evenodd;}.cls-76{fill:#f6a88a;}.cls-77,.cls-87{fill:#fcf8ef;}.cls-78{fill:#225081;}.cls-79{fill:#c79464;}.cls-80{fill:#548492;}.cls-81{fill:#e35b5b;}.cls-82,.cls-88{fill:#2b2b2b;}.cls-83,.cls-84{fill:#e27c6b;}.cls-85{fill:#97724f;}.cls-86{fill:#c9e8f1;}</style></defs><g id="Data_Entry" data-name="Data Entry"><g id="background"><path class="cls-1" d="M412.82,290.27c75.58,0,86.28-83.59,86.28-115.43,0-28.59-9.19-121.58-122.93-121.58-103,0-242.45,75.84-242.45,147.5,0,26,28,76.19,89,76.19,25.64,0,52.46-6.72,78.37-6.72C338.09,270.23,363.44,290.27,412.82,290.27Z"/><path class="cls-1" d="M287,351.48c39.6,0,64.15-20,64.15-36.23,0-12.51-14.67-22.45-42.34-22.45-40.25,0-64.11,17.59-64.11,33.24C244.71,338.57,259.3,351.48,287,351.48Z"/></g><g id="object"><path class="cls-2" d="M451.18,136.83c.2,0,.38.08.45.42,0,0,0,.08,0,.11,0,.55-.71.55-.91,1,.13.32,1.11.34,1.11.73s-.7.65-.7.85.82.35.82,1.56a.85.85,0,0,1-.12.52,1.5,1.5,0,0,0-.53,1.16c0,.61.3,1.22.3,1.82a.57.57,0,0,1,0,.13,2,2,0,0,1,.2.9c0,.6-.2,1.21-.21,1.82h0c0,.5,0,1,0,1.48,0,1.52-.13,2.8-.13,5.26a5.89,5.89,0,0,0,.41,2.44c-.05,1.93-.19,3.87-.19,5.8,0,.34.16,5.74.21,6.41-1.24,1.08-2.86.89-4.3,1.27-10.81,2.86-14,1.8-14,4.05a2.87,2.87,0,0,0,.07.62.72.72,0,0,1-.67.44,1.47,1.47,0,0,1-.47-.1,2,2,0,0,0-2-1.31c-1.75,0-11.94,2.69-19.12,4a3.77,3.77,0,0,0-1.37.5c-2.76.49-3.27-.67-3.27,13.56,0,1.69,0,2.2,0,2.87,0,3-.32,6.46-.32,6.53,0,1.1.63,1.19.63,1.57a1.06,1.06,0,0,1-.09.39c-.86,2.16-.3,4.48-.76,6.69,0,.39-.1.77-.13,1.15v.2c0,.17,0,.33,0,.49a4.31,4.31,0,0,1,.05.71c0,.47-.05.95-.05,1.42,0,1.23.39,2.69,2,2.69,1,0,10.1-1.18,10.91-1.18a14.33,14.33,0,0,1,1.47.12,1.37,1.37,0,0,0,.54.11,2.55,2.55,0,0,0,1.35-.54c.48-.06,28-2.7,28.11-2.7a1.48,1.48,0,0,1,1.32.62v.29c0,1,.08,2.08.08,3.13a21,21,0,0,1-.33,3.23,1.42,1.42,0,0,0,1.58,1.5,14,14,0,0,0,1.8-.24c-.22,1.05-1.11,1-1.86,1-2.18.08-20.48,1-22.41,2.42a1,1,0,0,0-.19.5c0,.36.43.45.84.56,1.75-.35,15.37-1,17.95-1.57a4.72,4.72,0,0,1,1-.12,2.38,2.38,0,0,1,1.58.53c0,.67.16,7.08.16,10.85a33.35,33.35,0,0,1-.26,4.51.6.6,0,0,0,.44.61h0a6.72,6.72,0,0,1-.36,2c-.11.06-.17.12-.17.17s.06.12.18.18a2,2,0,0,1,.37,1.32c0,1.48-.19,6.4-.19,9.26,0,3.4.2,5,.2,5.33,0,.79-.37,1.51-.37,2.28v.19a1.53,1.53,0,0,0,0,.3,1.52,1.52,0,0,1,.35.9c0,.66-.5.69-.5,1.06s.19.41.19.6a.27.27,0,0,1-.06.16.34.34,0,0,1,0,.1c0,.29-.27.57-.27.86a.53.53,0,0,0,.23.41,1.7,1.7,0,0,1,.26,1c0,.48-.12,1-.12,1.42,0,.13,0,1.17,0,2.68s0,3.19-.15,4.79V276a30.65,30.65,0,0,1,.17,3.45c0,1.06,0,2.13-.06,3.2s-1.62,2-3.16,2a3.75,3.75,0,0,1-2.39-.86h0a7.62,7.62,0,0,0-1.75-.29c-1,0-1.1.38-2,.38a3.81,3.81,0,0,1-1.15-.2c-6.18-2.1-11.82-.87-32.55-5.15-1.12-1.64-1.14-13.2-1.14-13.33,0-.6,0-.79,0-1.06,0-2.67-.41-3.15-3.13-3.5-20.66-2.65-59.35-8.18-60.77-8.18a1.68,1.68,0,0,0-1.72,1.57c0,.69.57,1,.57,3.45,0,.74-.05,1.48-.05,2.21s.12,5.62.12,7a2.73,2.73,0,0,1-.05.5,1.25,1.25,0,0,1-.36.68,38.17,38.17,0,0,1-6.48-.74h-.34a10.88,10.88,0,0,1-2-.35h0c-2.47-.44-5-.64-7.47-1h0c-.75-.37-1.73.05-2.38-.68h-1.2c-.27,0-.54.07-.81.07a1,1,0,0,1-.37-.06h0a19.12,19.12,0,0,0-2.38-.69H319c-2.46,0-4.77-1.06-7.23-1.06h-.44a1.36,1.36,0,0,1-.75-.3h-.32c-5-.4-22.25-3.35-22.44-3.41h0c-12.42-1.84-12.12-1.82-12.92-2.37a1.23,1.23,0,0,1-.68-1.21c0-.31.05-.63.05-.93,0-.08,0-.15,0-.22.7-.37-.07-1.86,1.13-1.86a3.14,3.14,0,0,1,.32,0s.05,0,.05,0,0,0-.05-.05c-1.29-.75-.55-2.5-1.63-3.36,0-.77,0-1.53,0-2.29,0-2.39-.09-4.78-.09-7.16,0-1.93.06-3.13.06-4.76a28.06,28.06,0,0,0-.2-3.66h0a2,2,0,0,1-.24-1c0-.75.33-1.5.33-2.26,0-1.09-.14-6.67-.14-10.57,0-2.63.32-18.1.32-18.87,0-3.81-.33-6.25-.33-7a3.57,3.57,0,0,1,.4-1.76h0a3.27,3.27,0,0,0,0-.54c0-1.07-.46-2.1-.46-3.17a3.05,3.05,0,0,1,.08-.72l.34-1a1.07,1.07,0,0,1-.27-.63,11,11,0,0,0,.3-2.67c0-1-.08-2-.08-3,0-.41,0-.82.05-1.23A16.85,16.85,0,0,1,274,175a13.64,13.64,0,0,1,.19-2.3c-.07-1.15-.16-2.3-.16-3.44a15.47,15.47,0,0,1,.16-2.35h0v-.35c0-1.05.07-2.08.07-3.13,0-1.91-.26-2.35-.26-4.05,0-3.36,1.33-4.44,2.91-5h0c1.41-.47,2.72-1.14,4.09-1.7l2-1c.55-.28,1.17-.38,1.71-.67l.67-.34c1.47-1.15,3.47-1.07,5-2.19a9.26,9.26,0,0,1,3.86-1.54l.66-.35a10.31,10.31,0,0,0,2.39-1h.1l.23,0c3.31-1.78,6.82-3.13,10.21-4.74l1.35-.69c2.24-1,4.47-2,6.8-2.71h0a13.91,13.91,0,0,1,2.73-1.36h.19a4.23,4.23,0,0,0,1.83-.7,51.45,51.45,0,0,1,6.46-3.05h0c1.52-1.13,3.44-1.27,5.11-2l1.34-.68a30.22,30.22,0,0,1,5.09-2l.35-.34c.15,0,16.64-6.58,22-9.67.24-.15,16.9-7,17.95-7.68,3.08-1.88,6.89-2.24,9.67-4.72.67,0,.81.34.81.73s-.3,2.55-.3,7.09c0,5.46.46,12,.46,15.25,0,1.85-.08,3.7-.08,5.55,0,3.82.35,3.9.35,6.88,0,1.63-.12,2.46-.12,2.88,0,.95.38,1.37,1.21,1.37s2.32-.52,7.39-1a13.64,13.64,0,0,0,2.1-.6c1.67-.25,3.37-.13,5.05-.47l.35,0a1.74,1.74,0,0,1,1.66,1.87c0,1.15-1.74,3.95-1.74,7.42,0,.75.08,1.11.08,1.29,0,.81-.78,1.33-.91,2.17-.32,2.18-.37,4.39-.86,6.54a2.85,2.85,0,0,0-.11.72.85.85,0,0,0,.86,1c.55,0,.81-.65,1.08-1.08,2.53-4.07,5.62-7.75,8.19-11.8a12.62,12.62,0,0,0,2.51-3.46c.53-.55.77-1.31,1.34-1.82a5.11,5.11,0,0,0,1-1.35c1.2-3.51,4.1-4.07,7.27-4.29C431.45,139.57,450.66,136.83,451.18,136.83Z"/><path class="cls-3" d="M462.16,244.42h.24a1.11,1.11,0,0,0,.36,0,9,9,0,0,0,2.62.33c.85,0,1.69-.06,2.53-.06,1.45,0,9.19,0,14.08,0,11.6,0,17.15-.32,36.32-.32,3.65,0,4.82,2.58,4.82,7.34,0,.13-1.82,44.91-2.93,48.35a6.55,6.55,0,0,1-1.66,1.74,5.09,5.09,0,0,1-1.21.16,3.82,3.82,0,0,1-1.15-.17c-15.74-2.66-50.35-9-51.08-9.19a1.08,1.08,0,0,0-.68-.2l-.63,0a1.12,1.12,0,0,1-.62-.15l-.62-.05c-.46-.22-1-.12-1.46-.36-1.78,0-2.06-1.46-2.06-2.54,0-.35,0-.58,0-1.42,0-1.63-.14-3.25-.14-4.87a20.56,20.56,0,0,1,.13-2.35.76.76,0,0,1,0-.15c0-.36.23-.71.23-1.07a.78.78,0,0,0-.18-.49v-6.41a1.49,1.49,0,0,0,.19-.79c0-.23,0-.46,0-.69a1.67,1.67,0,0,1,.07-.54,2.2,2.2,0,0,0,.13-.67c0-.41-.19-.82-.19-1.23a1.15,1.15,0,0,1,.13-.53,6.51,6.51,0,0,0,0-.77c0-1.28-.26-2.56-.26-3.84a6.28,6.28,0,0,1,.36-2.21,2.31,2.31,0,0,0,.36-1.28c0-.85-.36-1.71-.36-2.56a3.77,3.77,0,0,1,.06-.58c0-.2-.13-.45-.13-.61s.56-.4.56-1.09a8,8,0,0,0-.53-1.64l-.06-.36a4,4,0,0,0,.28-1.5,6,6,0,0,0-.23-1.55l0-1.69c.32-.07.42-.19.42-.34s-.18-.44-.18-.65v0c-.11-.29-.35-.58-.35-.87a.66.66,0,0,1,.31-.52c.8-.15,1.11-.94,1.73-1.33A.78.78,0,0,1,462.16,244.42Z"/><path class="cls-4" d="M342.46,268.22a2.09,2.09,0,0,1,0-.43l0-.63c.13-.07.2-.14.2-.21s-.07-.14-.2-.2v-.22c0-2.12-.12-4.23-.12-6.34s.11-2.73.11-3.2c0-1.47-.75-1.58-.75-2.67,0-.62.59-2.35,1.94-2.35.1,0,27.6,3.59,27.72,3.61,2.75.39,5.47,1.29,8.21,1.36,3.19.08,6.25,1,9.42,1a5.12,5.12,0,0,1,1.17.13c3.86,1,7.86,1.05,11.78,1.64,4.75.72,6.39-.14,6.39,4.59,0,.25,0,1.61,0,2.65a56.66,56.66,0,0,0,.7,10.36,1.91,1.91,0,0,1-.27,1,1.28,1.28,0,0,0-.22.6v0c0,.29-.17.59-.17.88a.59.59,0,0,0,.35.53,2.49,2.49,0,0,1,.6,1.79c0,.45-.06.9-.06,1.32,0,1.06.8,10.56.8,12.72V297a.49.49,0,0,1,0,.12c0,.22-.1.43-.1.64a.56.56,0,0,0,.08.3,2.28,2.28,0,0,1,0,.26c0,.29,0,.59,0,.88a1.6,1.6,0,0,0,.35,1.11,4,4,0,0,0-.17,1.12,3.23,3.23,0,0,0,.18,1.06c0,.56,0,1.12,0,1.68,0,.31.22,3.09-1.93,3.09-1.15,0-.7-.64-3.1-.77-.15-.32-.5-.17-.73-.28-17.56-5.39-16.59-5.42-19.39-6.45a3.78,3.78,0,0,1-1-.3l-10.83-3.54c-.52-.41-1.25-.19-1.77-.58l-4-1.08a.71.71,0,0,0-.75-.62,1.59,1.59,0,0,0-.36,0c-6.25-2-12.52-3.95-18.68-6.2-.45-.19-.91-.35-1.36-.54-.94-.31-4.13-.29-4.13-2.35a2.25,2.25,0,0,1,0-.44,3.64,3.64,0,0,0,.17-1.22c0-.39,0-.78,0-1.17a3.65,3.65,0,0,1,.12-1l0-1.08a1.53,1.53,0,0,1-.09-.56c0-.15,0-.31,0-.46a1.35,1.35,0,0,0-.16-.71q0-4.56-.05-9.12C342.48,268.61,342.46,268.42,342.46,268.22Z"/><path class="cls-3" d="M270,241.69c0,1.57-.06,3.14-.2,4.7,0,.21,0,.43,0,.64,0,1.27-.23,2.53-.23,3.81s.17,1.39.17,2c0,1-.51,1.54-1.4,1.54-1.28,0-4.65-1.75-8.42-2.22a2.39,2.39,0,0,0-1.34-.28c-2.65-1.09-5.48-1.62-8.18-2.52-1.23-.41-2.83-.23-3.37-1.89a4.83,4.83,0,0,0,.18-1.41c0-.54,0-1.09,0-1.63a5,5,0,0,1,.18-1.44l0-6.4a3.41,3.41,0,0,0,.17-1.18c0-.45,0-.9,0-1.35a3.29,3.29,0,0,1,.21-1.27l0,0c.36-.11.81.08,1.07-.34,2.75-.19,18.25-2.5,19.3-2.5a1.22,1.22,0,0,1,1,.45.43.43,0,0,1,.26.42c0,.18-.07.39-.07.58a.4.4,0,0,0,.16.35v.47c0,.71.19,1.44.19,2.15a2.28,2.28,0,0,1-.78,1.83c.28.23.67.31.84.68l.11,0C269.93,238.48,270,240.09,270,241.69Z"/><path class="cls-5" d="M335.72,115.22c.69-.15,38.3-16.43,38.57-16.63a9.25,9.25,0,0,1,3.56-1.43c.77,0,1,.66,1,1.24s-.32.91-1,1.24c-.12,0-16.6,7.79-18.67,8.15-.56.66-1.44.3-2.1.65-3.52,2.37-1.93.86-19.46,9.14-3,.85-24.38,10.81-24.72,10.94a.68.68,0,0,0-.26-.08c-.4,0-.41.7-.81.7h0c-7.44,2.17-6.38,3.22-9.1,3.43-.33.23-.74.33-1.06.59l-.34.3c-.35.43-1,.4-1.36.79C294.23,136.09,273.9,146,271.27,146c-.67,0-.74-.73-.74-.94,0-.76.17-.6,6.41-3.71a1.7,1.7,0,0,0,.79-.61c4.41-1,9.64-4.75,14.83-6.13a.47.47,0,0,1,.27-.08c.22,0,.43.13.65.13l.13,0a8.67,8.67,0,0,1,4.21-2.77c3.21-1.11,13.83-6.18,15.8-6.72a.65.65,0,0,0,.19,0c.52,0,.81-.44,1.19-.7C322.4,120.8,323.74,120.86,335.72,115.22Z"/><path class="cls-3" d="M432.63,289.24h.3c2.76.9,5.69,1,8.51,1.59a1.54,1.54,0,0,1,.48-.09c.85,0,1,1,1.54,1.47a5.43,5.43,0,0,1,2.58-.61,5.83,5.83,0,0,1,3.85,1.35,1.34,1.34,0,0,1,.18.61c0,.49-.41.8-.93,1.06-2.05-.08-2.69-.29-14.17-2.4a.52.52,0,0,0-.43-.19c-.19,0-.38.06-.57.06a.53.53,0,0,1-.37-.13,1.46,1.46,0,0,1-.36,0c-1,0-1.92-.75-2.95-.75h-.09a6.51,6.51,0,0,0-2.36-.27c-6.1-1.18-5.95-1.09-8.72-1.92a1,1,0,0,1-.8-1c0-.84.47-.87.68-.87,1.67,0,11.15,2.08,12.82,2.08h.41A2.68,2.68,0,0,0,432.63,289.24Z"/><path class="cls-6" d="M273.5,191.54a1.17,1.17,0,0,1,.72-1.21c0,.12.19,12,.19,12,0,2.09-.24,4.24-.24,6.32v10c0,5.94,0,6.71,0,8.28a28.3,28.3,0,0,1-.33,4.86,1.24,1.24,0,0,1-.36-.89c0-.48.22-1,.22-1.47a18.38,18.38,0,0,1-.15-2.19c0-1.77.26-3.53.26-5.29,0-2.18-.37-2.28-.37-5.26,0-2.3.26-4.6.26-6.9,0-1,0-2.23,0-3.35,0-4.49.17-4.43.17-7C273.9,196,273.5,192,273.5,191.54Z"/><path class="cls-6" d="M408.64,278.77c-.06,0-.11,0-.15-.14l.34-.3c28.29,4.05,18.22,3.06,29.26,4.21,1.64.17,3.21,1,4.89,1a10.22,10.22,0,0,0,2-.36,2.32,2.32,0,0,1,1.5.63c-3.9.11-2.74.4-4,.4s-5.3-1.88-12.19-1.88h-.19c-1.3,0-2.41-.81-3.72-1-17.22-2.11-16.42-2.33-17.65-2.65C408.74,278.73,408.69,278.77,408.64,278.77Z"/><path class="cls-6" d="M287.81,259.63a4.6,4.6,0,0,1,1-.11c.3,0,9.72,1.34,21.4,3.52h-.67a58.9,58.9,0,0,1-10.81-1.45C288.37,259.65,288.33,260.85,287.81,259.63Z"/><path class="cls-6" d="M452.66,258.75a4.38,4.38,0,0,1-.73,2.61,1.08,1.08,0,0,1-.3-.75c0-.54.36-1.08.36-1.62s0,1.91-.07-16a1.13,1.13,0,0,1,.71,1.22c0,.66-.35,7.45-.35,8.91C452.28,255.93,452.66,257.44,452.66,258.75Z"/><path class="cls-6" d="M273.73,239.14c0-2.46,0-4.91.15-7.37a1,1,0,0,1,.35.89c0,.15,0,.31,0,.46s0,1,0,2.86c0,1.69,0,3.38,0,5.08,0,4.29.19,5.83.19,6.16,0,.52-.19,1.06-.19,1.59a1.51,1.51,0,0,0,.32,1c0,.51.21,1,.21,1.53a1.69,1.69,0,0,1-.22.85c-.53-.07-.88-.23-.88-.85,0-.3.21-2.88.21-4.81C273.87,245.08,273.73,243.49,273.73,239.14Z"/><path class="cls-6" d="M276.94,154.31a5.15,5.15,0,0,0-2.55,4.77c0,1.47.38,3.19.38,4.87a7.19,7.19,0,0,1-.55,2.93c0-.16,0-.32,0-.48,0-2.21-.35-4.41-.35-6.63C273.88,155.74,274.65,154.73,276.94,154.31Z"/><path class="cls-7" d="M459.21,256.15a10.9,10.9,0,0,1,.28-2.6c1,1.07,1.21,1.32,1.21,1.49,0,.35-1.15.75-1.15,2.34s1,1.64,1,2.6c0,.52-.4.91-1,1.33C459.49,259.59,459.21,257.87,459.21,256.15Z"/><path class="cls-6" d="M449.35,284.82a4.14,4.14,0,0,1-2.84-1.06h0c.71,0,1.09.58,1.94.58,2.3,0,3.51-.84,3.51-2.66,0-1-.28-1.34-.28-2.27s.29-1.86.29-2.79A3.68,3.68,0,0,0,452,276a11.67,11.67,0,0,1,.5,3.55,24.78,24.78,0,0,1-.31,3.56C452,284.21,450.72,284.82,449.35,284.82Z"/><path class="cls-6" d="M274.89,257.27c7.24,1.93,12.43,1.7,12.92,2.37a2.7,2.7,0,0,1-1.23.29c-1.21,0-2.36-.71-3.59-.72a38.26,38.26,0,0,1-6.73-1.11C275.74,258,275.13,257.9,274.89,257.27Z"/><path class="cls-8" d="M274.55,252.36c0-.07,0-.13,0-.19a3.4,3.4,0,0,1-.23-1.2,3.11,3.11,0,0,1,.24-1.18,3,3,0,0,1,.93,1.87,1.79,1.79,0,0,1-.21.83.39.39,0,0,0,.28.12c.3,0,.61-.34.84-.34s.29.47.29.52c0,.36-.33.62-.78.62a4.89,4.89,0,0,1-.62-.11c-.29,0-.19.34-.26.61a.66.66,0,0,0,0,.21c0,.1,0,.22,0,.33,0,.27-.05.52-.39.52a1.34,1.34,0,0,1-.36-.06c0-.24,0-.47,0-.7a1,1,0,0,1-.22-.61,1.93,1.93,0,0,1,.55-1.09A.76.76,0,0,0,274.55,252.36Z"/><path class="cls-6" d="M307.87,140.72a72.19,72.19,0,0,1-10.21,4.74c.48-1.05,1.67-1.21,2.49-1.51C302.78,143,305,141.16,307.87,140.72Z"/><path class="cls-6" d="M313,263.64c-.43,0-.93.19-1.38.19a1,1,0,0,1-1.05-.79q.36,0,.72,0c2.48,0,4.84,1,7.33,1h.16c.1,0,.2.24.3.37a3.57,3.57,0,0,1-1.55.34C316,264.73,313.91,263.64,313,263.64Z"/><path class="cls-6" d="M294.28,146.84c-2.63.73-4.67,2.89-7.51,3.15-.47,0-.75.58-1.25.58h-.09c.05-.1.09-.26.17-.28C288.59,149.38,291,147,294.28,146.84Z"/><path class="cls-6" d="M452.4,273a6.64,6.64,0,0,1-.46,2.66,8.67,8.67,0,0,1-.3-2.31c0-1.34.21-1.43.21-3.13,0-.87-.06-1.74-.06-2.61a12.1,12.1,0,0,1,.12-1.8,4,4,0,0,1,.51,2.1c0,.78-.13,1.58-.13,2.35S452.4,272,452.4,273Z"/><path class="cls-6" d="M336.43,267.12a28.8,28.8,0,0,1,6.07.67.94.94,0,0,1,.21.53.71.71,0,0,1-.22.49c-1.55-1.16-3.43-.8-5.17-1.09h-.61c-.31,0-.57-.07-.65-.59Z"/><path class="cls-6" d="M332.34,266.82a17.66,17.66,0,0,1-6.13-1.06h.44c.41,0,.81,0,1.21,0a6.28,6.28,0,0,1,1.89.33c.17,0,.3-.1.3-.44a.42.42,0,0,1,.33-.44.19.19,0,0,1,.17.12c.62,1.48,2.18.81,3.13,1.47C333.23,266.81,332.79,266.82,332.34,266.82Z"/><path class="cls-6" d="M327.23,132.22a29.81,29.81,0,0,1-6.46,3.05c0-.35.11-.78.44-.84C323.37,134.09,325,132.24,327.23,132.22Z"/><path class="cls-6" d="M273.81,178.38a1.21,1.21,0,0,1,.41-1,15.22,15.22,0,0,1,.27,3c0,1.49-.16,3-.28,4.48a.7.7,0,0,1-.51-.69,28.37,28.37,0,0,0,.32-3.43C274,179.36,273.81,179,273.81,178.38Z"/><path class="cls-6" d="M316,137.32a33.5,33.5,0,0,1-6.8,2.71c.28-1.19,1.49-.73,2.22-1.16A9.38,9.38,0,0,1,316,137.32Z"/><path class="cls-3" d="M270.19,245.39a1.31,1.31,0,0,1-.39,1q0-4.75,0-9.52a11.26,11.26,0,0,1,.37,3.09c0,1.19-.1,2.38-.1,3.56S270.19,244.92,270.19,245.39Z"/><path class="cls-3" d="M269.81,234.1c0,.82-.11,1.64-.11,2.45,0,.12,0,.24,0,.36-1-.21-1.24-.73-1.24-.76s.13-.13.46-.17.36-.2.36-.37,0-.19,0-.28a4.8,4.8,0,0,0,.1-.79c0-.5-.12-1-.12-1.5a2.08,2.08,0,0,1,.2-.93A5,5,0,0,1,269.81,234.1Z"/><path class="cls-6" d="M452.72,263a2.09,2.09,0,0,1-.78,1.43l-1.42-1.07h.11c1,0,1.38-.44,1.38-1.13a3.49,3.49,0,0,0-.05-.53A1.71,1.71,0,0,1,452.72,263Z"/><path class="cls-6" d="M273.8,169.87a11.49,11.49,0,0,1,.42-3c0,1.28.17,2.56.17,3.83a10.05,10.05,0,0,1-.17,2A9.31,9.31,0,0,1,273.8,169.87Z"/><path class="cls-6" d="M332.34,130.18c-1.56,1-3.44,1.3-5.11,2C328.56,130.61,330.54,130.63,332.34,130.18Z"/><path class="cls-6" d="M338.77,127.46c-1.71.63-3.22,1.77-5.09,2A8.94,8.94,0,0,1,338.77,127.46Z"/><path class="cls-6" d="M273.55,187.19a2.63,2.63,0,0,1,.33-1.29,25.57,25.57,0,0,1,.53,3.21,3.74,3.74,0,0,1-.19,1.22C274.12,189.27,273.55,188.25,273.55,187.19Z"/><path class="cls-6" d="M281,152.61a8.49,8.49,0,0,1-4.09,1.7A10.39,10.39,0,0,1,281,152.61Z"/><path class="cls-9" d="M459.48,250.14a3.68,3.68,0,0,1,.56,1.68,1.87,1.87,0,0,1-.61,1.37C459.45,252.17,459.46,251.16,459.48,250.14Z"/><path class="cls-9" d="M461.42,244.7h0c-.34.53-.35,1.5-1.1,1.5a1.49,1.49,0,0,1-.63-.17A1.71,1.71,0,0,1,461.42,244.7Z"/><path class="cls-3" d="M247.07,246.93c0-.67-.08-1.34-.08-2a4.44,4.44,0,0,1,.37-1.92c0,.21,0,.42,0,.63,0,.56,0,1.13,0,1.69a6,6,0,0,1-.33,2.16A5,5,0,0,0,247.07,246.93Z"/><path class="cls-10" d="M407.94,279.85c0-.37.55-.83.55-1.2v0l.31,0a1.63,1.63,0,0,1,.27.86,1.48,1.48,0,0,1-.28.84C408.14,280.26,407.94,280.07,407.94,279.85Z"/><path class="cls-9" d="M459.49,248a.64.64,0,0,1,.28-.58,1.66,1.66,0,0,1,.35.35c.15.27.64.46.64.77s-.21.42-.37.42-.45-.53-.78-.53l-.08,0A3.42,3.42,0,0,1,459.49,248Z"/><path class="cls-3" d="M442.25,290.61c.77,0,1,.78,1.21,1.6-.84-.14-.92-1.39-1.86-1.39h-.16A2,2,0,0,1,442.25,290.61Z"/><path class="cls-6" d="M318.75,136a7.09,7.09,0,0,1-2.73,1.36A3.41,3.41,0,0,1,318.75,136Z"/><path class="cls-3" d="M269.79,231.19a.89.89,0,0,1-.33.59h-.57a.75.75,0,0,1-.71-.38c.29-.22,1.1,0,1.1-.48a1.13,1.13,0,0,0-.17-.49C269.47,230.65,269.79,230.88,269.79,231.19Z"/><path class="cls-3" d="M247.41,236.16c0-.57-.08-1.14-.08-1.71a3.08,3.08,0,0,1,.4-1.65,7.26,7.26,0,0,0,0,.8c0,.37,0,.73,0,1.1a4.63,4.63,0,0,1-.31,1.9C247.4,236.46,247.41,236.31,247.41,236.16Z"/><path class="cls-11" d="M459,269.17a1.82,1.82,0,0,1,.36-1,.57.57,0,0,0,0,.18c0,.43.51.84.51,1.26,0,.2-.12.4-.45.61A1.61,1.61,0,0,1,459,269.17Z"/><path class="cls-6" d="M342.55,283.79c0-.52-.06-1-.06-1.56a3.15,3.15,0,0,1,.31-1.49c0,.12,0,.24,0,.37,0,.53.08,1.07.08,1.61a2.92,2.92,0,0,1-.32,1.45C342.55,284,342.55,283.92,342.55,283.79Z"/><path class="cls-3" d="M429.86,291.22c-.33,0-.66,0-1,0a1.73,1.73,0,0,1-1-.29,1.38,1.38,0,0,1,.8-.26,4.44,4.44,0,0,1,1.56.53A2,2,0,0,0,429.86,291.22Z"/><path class="cls-12" d="M372.84,296a1.13,1.13,0,0,1-1.11-.65h.14c.27,0,.58-.09.86-.09s.62.12.76.66A3.69,3.69,0,0,1,372.84,296Z"/><path class="cls-13" d="M314.77,124.43a.66.66,0,0,1,.23,0h0c0,.66-.24.84-.57.84a3.26,3.26,0,0,1-.81-.17C314.05,125,314.26,124.43,314.77,124.43Z"/><path class="cls-6" d="M297.24,145.47h.09a3,3,0,0,1-2.05,1,2,2,0,0,1-.34,0A4.94,4.94,0,0,1,297.24,145.47Z"/><path class="cls-6" d="M273.58,253.39c0-.36.42-.63,1-.88l-.33,1.7C273.76,253.89,273.58,253.62,273.58,253.39Z"/><path class="cls-6" d="M321.25,265.08a3.1,3.1,0,0,1-2.18-.69h.45a2.26,2.26,0,0,1,1.93.69Z"/><path class="cls-6" d="M325.91,265.74c-.28,0-.58,0-.86,0a1.22,1.22,0,0,1-1.22-.7c.76.36,1.68.12,2.38.68A1.51,1.51,0,0,0,325.91,265.74Z"/><path class="cls-6" d="M335.1,267.39c-.51,0-.93-.49-1.42-.61h.56a2.53,2.53,0,0,1,1.48.36A.94.94,0,0,1,335.1,267.39Z"/><path class="cls-6" d="M517.35,302.18a2.16,2.16,0,0,1-1.17-.38h2.36A2.33,2.33,0,0,1,517.35,302.18Z"/><path class="cls-6" d="M322.13,265.44a.94.94,0,0,1-.68-.37,2.83,2.83,0,0,1,.84-.3.66.66,0,0,1,.52.3A.94.94,0,0,1,322.13,265.44Z"/><path class="cls-3" d="M450.25,293.84c0,.43-.36.69-1.11.78.36-.41.8-.77.8-1.33a1,1,0,0,0-.05-.34A1.69,1.69,0,0,1,450.25,293.84Z"/><path class="cls-6" d="M452.44,241.3a2.48,2.48,0,0,1-.53,1.35,4.17,4.17,0,0,1,.36-2A1.48,1.48,0,0,1,452.44,241.3Z"/><path class="cls-3" d="M434.48,292.39a1.52,1.52,0,0,1-.88-.43c0,.1.11.14.18.14.26,0,.62-.53.89-.53s.25.16.3.65A.79.79,0,0,1,434.48,292.39Z"/><path class="cls-6" d="M458.85,280.25c0-.35.28-.69.28-1a.85.85,0,0,0,0-.22,1.17,1.17,0,0,1,.29.76,1.88,1.88,0,0,1-.33.95A.65.65,0,0,1,458.85,280.25Z"/><path class="cls-3" d="M248.41,232.47h.37c-.07.49-.22.72-.44.72a1,1,0,0,1-.63-.38A.71.71,0,0,1,248.41,232.47Z"/><path class="cls-6" d="M284.6,150.91h.16a1.92,1.92,0,0,1-1.52.68h-.19A1.91,1.91,0,0,1,284.6,150.91Z"/><path class="cls-6" d="M410.46,302.51a1.7,1.7,0,0,1-.36-1,2.35,2.35,0,0,1,.35-1.15C410.46,301.06,410.46,301.79,410.46,302.51Z"/><path class="cls-6" d="M459.1,272.28c0-.26,0-.54,0-.81a1.48,1.48,0,0,1,.26-.91,1.15,1.15,0,0,0,0,.19c0,.34.11.7.11,1a1,1,0,0,1-.34.79C459.09,272.48,459.1,272.38,459.1,272.28Z"/><path class="cls-6" d="M293.08,134.27a.71.71,0,0,1,.53.37c-.12.31-.23.42-.34.42s-.44-.46-.67-.46h0A.71.71,0,0,1,293.08,134.27Z"/><path class="cls-6" d="M464.83,292.59l-.76,0a1.18,1.18,0,0,1-.9-.33h.18l.71,0a1.47,1.47,0,0,1,1,.33A1.23,1.23,0,0,0,464.83,292.59Z"/><path class="cls-3" d="M259.77,252.16h-.43a.91.91,0,0,1-.74-.28,1.1,1.1,0,0,1,.57-.19,1,1,0,0,1,.77.47Z"/><path class="cls-14" d="M301.92,133.18a.78.78,0,0,1-.21,0c.09-.53.44-.6.82-.6h.24A.92.92,0,0,1,301.92,133.18Z"/><path class="cls-6" d="M366.67,293.7a2,2,0,0,1,.58-.13c.3,0,.51.17.53.71Z"/><path class="cls-6" d="M410.4,297.4c0,.23-.21.45-.28.68a.89.89,0,0,1-.27-.56.64.64,0,0,1,.28-.5A.45.45,0,0,1,410.4,297.4Z"/><path class="cls-6" d="M384.91,300c-.25,0-.4-.32-.58-.53a1.31,1.31,0,0,1,.38-.06.66.66,0,0,1,.61.36A.6.6,0,0,1,384.91,300Z"/><path class="cls-6" d="M312,129.14h-.13c.23-.26.3-.77.67-.77a.76.76,0,0,1,.41.15A1,1,0,0,1,312,129.14Z"/><path class="cls-15" d="M405.29,306.52a.66.66,0,0,1-.58-.29c.3,0,.42-.5.72-.5a.45.45,0,0,1,.2.06,0,0,0,0,1,0,0,6.27,6.27,0,0,1-.2.69Z"/><path class="cls-6" d="M342.5,278.84c0-.26.05-.52.05-.78,0,0,0-.09,0-.13a1,1,0,0,1,.33.78c0,.32-.09.64-.09,1A1.2,1.2,0,0,1,342.5,278.84Z"/><path class="cls-6" d="M300,134.25a1.84,1.84,0,0,1,1.36-.79C301.12,134.07,300.58,134.18,300,134.25Z"/><path class="cls-6" d="M347.71,287.51a1.13,1.13,0,0,1-1.08-.55h.14a1.86,1.86,0,0,1,1.22.55Z"/><path class="cls-3" d="M432.57,289c.12,0,.24.1.36.29-.12.2-.24.42-.48.42s-.12-.09-.22-.44C432.34,289,432.46,289,432.57,289Z"/><path class="cls-6" d="M277.73,140.74a1.59,1.59,0,0,1,.14.56.2.2,0,0,1-.23.23,3.44,3.44,0,0,1-.7-.18A1,1,0,0,1,277.73,140.74Z"/><path class="cls-6" d="M462.51,292.24l-.61,0a.89.89,0,0,1-.81-.39,1,1,0,0,1,.37-.07,2.28,2.28,0,0,1,1.09.43Z"/><path class="cls-4" d="M400.53,143.46c-.33,0-.7-.1-1-.1a.91.91,0,0,0-.93.74c-.85.19-7.8,1.22-7.85,1.22-.7,0-1.3-.56-1.3-1.57,0-.22.06-.94.06-2.46,0-3-.27-6.08-.27-9.11,0-1.34.05-1.53.05-2.4s-.05-1.83-.05-2.75,0-1,0-1.93c0-1.63-.32-6.55-.32-8.44,0-.91,0-1,0-1.94,0-1.71-.18-3.43-.18-5.14a16.14,16.14,0,0,1,.45-4c0-.29-.2-.45-.47-.58-.55-25.9-.62-15.87-.62-18.42,0-1.52.42-2,14.84-8.8a.74.74,0,0,1,.38-.14.24.24,0,0,1,.2.08c.22.26.34.36.39.36s0,0,0-.08-.1-.41-.1-.54,0-.07,0-.07a.21.21,0,0,1,.09,0c3-1.66,27-13.3,27-13.3l.26,0c.14,0,.26,0,.29-.29,1.84-.46,6.07-3.41,7.91-3.41l.26,0c.61,0,.79-.76,1.36-.85,0,.06.08.08.11.08s.07,0,.09-.12l.09-.17h0c.44-.24,1.06-.16,1.33-.72h.13c.89,0-2.55.63,23.7-11.8a1.41,1.41,0,0,0,1-.36c2.48-1.13,5.22-3.09,8.26-3.09a6.5,6.5,0,0,1,3.73,1.17c1.81,1.23,1.54,3,1.54,8.68s0,11.19,0,16.79c0,16.32.14,17.74.14,23.2,0,3.48-.05,7-.05,10.43,0,7.56.19,6.13.19,15v3.11c0,4.7.05,6.1.05,6.37,0,2.51-3.33,5.79-6,6-5.65.46-23.72,3-23.84,3s-28.32,3.65-28.48,3.65a5.46,5.46,0,0,1-.76-.08,1.57,1.57,0,0,0-1.13.76,23.71,23.71,0,0,0-2,3.14c-.25.36-1.16.11-1.16.72a1.17,1.17,0,0,0,.09.4c-.54.47-.49,1.39-1.28,1.66-.72,1.21-1.82,2.12-2.53,3.33a45.7,45.7,0,0,1-5.49,8.25c-1.31,1.58-3.1,5.34-4,5.34a1.38,1.38,0,0,1-1.29-1.38,61,61,0,0,1,1.11-7.89c.94-2.77.67-5.68,1.64-8.39a5.7,5.7,0,0,0,.68-2c0-.36-.15-1.65-.89-1.65a17.26,17.26,0,0,1-3.78.48c-.57,0-1.15,0-1.73-.08Z"/><path class="cls-16" d="M500.19,119.29a22.81,22.81,0,0,1,8.15,1.75.85.85,0,0,0,.39.07h.16a.71.71,0,0,1,.53.17c.73.35,1.45.72,2.19,1.06,8,3.7,9.54,14.36,9.54,14.74,0,.73-.14.82-.14,1.61,0,4.41,7.76,5.86,7.76,20.15a18.5,18.5,0,0,1-.27,3c0,.12,5.15,8.63,5.15,14.41,0,.6-.26,1.16-1.57,1.35,1.29.27,1.56.82,1.56,1.44,0,6.47-3.79,12.24-5.36,12.24a1.16,1.16,0,0,1-1.11-1c0-1.69,4.37-2.37,4.37-13.79,0-4.16-2.66-9.39-3.44-10.32-.38-.45-.21-1.48-.9-1.48-2.23,0-1.89,4.12-7,4.12-.51,0-5.2-.07-5.2-4.62a4.23,4.23,0,0,1,2.44-4,15.12,15.12,0,0,1,5.57-1.55c1.33,0,2.53.81,3.24.81.33,0,.51-.19.51-.69a22.25,22.25,0,0,0-5.83-15h0c-.79,0-.78.72-1,1.18s-.46.69-.75.69a1.33,1.33,0,0,1-.77-.37,1,1,0,0,1-.28-.66c0-.6.58-1.13.58-1.71,0-1.11-2.32-1.19-3.37-1.71a1.32,1.32,0,0,1-.23-.16h0c-.58,1.65-2.63,1.56-2.63,4.23a2.73,2.73,0,0,0,.79,2c.26.13,1.59.54,1.59,1.13,0,.16-.11.32-.38.47a5.83,5.83,0,0,1-1.49.23c-.13,0-3,.26-3-4.68a6.22,6.22,0,0,1,5.87-6c1.37,0,2.18.81,3,.81.51,0,.84-.35,1.1-1.07a3.64,3.64,0,0,0,.21-.58c0-.07,0-.1-.13-.1s-.52.12-.61.12-.18-.11-.18-.25,0-.2,0-.55c0-2.31-1.57-4-2.3-6-1.35-3.78-4.85-5.33-7.57-7.7a.63.63,0,0,0-.46-.18c-.23,0-.46.1-.7.1-1.56,0-5.58-1.68-8.6-1.68h-.1a.47.47,0,0,1-.16-.33.53.53,0,0,1,.14-.33h0C499.84,120.25,499.57,119.55,500.19,119.29Z"/><path class="cls-17" d="M451.9,213.38a5.21,5.21,0,0,0-1.45-.19c-.12,0-26.64,2.76-26.75,2.76-.34,0-.62-.33-.94-.33a.51.51,0,0,0-.38.19.74.74,0,0,0-.28-.06c-.42,0-.76.45-1.18.45a.69.69,0,0,1-.24,0h-.32c-3,0-12,1.19-12.12,1.19-1.71,0-2.51-1-2.51-3,0-.66.11-1,.11-1.53a2.08,2.08,0,0,0-.09-.65c0-.06,0-.08.08-.08s.17.06.23.06.06,0,.06-.07c0-.21-.25-.47-.36-.68l.3-1a1.31,1.31,0,0,1,1.35-1.13,3.37,3.37,0,0,1,.79.12,3,3,0,0,1,.39,1.58c0,.59-.1,1.12-.1,1.69,0,1.28.46,1.66,1.9,1.66,3.55,0,69.94-7,72.1-7h.39a1.89,1.89,0,0,1,.77.29c.42.28,1,.49,1,1.08,0,.82-.78.9-1.23,1.07s-1.11,0-1.53.42c-1.2.33-.6.17-8.84.88a.57.57,0,0,0-.25-.06c-.21,0-.43.1-.64.1H472C450,213.34,452.69,213,451.9,213.38Z"/><path class="cls-5" d="M430.2,224.8a.76.76,0,0,1,0-.15c2.13-2.51,23.35-2.06,24.82-3.36.53.05,1.06.07,1.59.07,2.15,0,10-1,14.39-1,1,0,1.38,0,1.74,0,1.81,0,3.6-.7,5.44-.87.12,0,20.66-1.62,21-1.62a4.41,4.41,0,0,1,1,.32.89.89,0,0,1,0,.22c0,.59-.78.45-1,.83v0c0,1.17,1.49,1.12-20.8,2.87a.42.42,0,0,1-.32.15c-.19,0-.38-.1-.56-.1l-.1,0c-3.51.53-20.82,1.95-25.49,2.4-6.93.27-15,1.28-16.7,1.28-.92,0-1.15-.08-1.57-.08a10.49,10.49,0,0,0-2.41.47C431,225.79,430.2,225.53,430.2,224.8Z"/><path class="cls-17" d="M434.23,175.21a1.24,1.24,0,0,1-.64-.16,3.31,3.31,0,0,1-.47-1.28c0-1,0-.63,18.83-4.53,2.38-.55,28.59-6.1,29.42-6.1.63,0,1.1.27,1.15,1.22.43,6.81.94,14.2.94,14.35a.37.37,0,0,1-.24.4,2.15,2.15,0,0,1-.62.1c-1.14,0-1.29-1.23-1.8-2a5,5,0,0,1-.42-2.25c0-.61.05-1.22.05-1.83,0-1.55-.32-4.11-.39-6,0-.91-.36-1.27-1-1.27a2.72,2.72,0,0,0-.69.11c-7.88,2.11-24.21,5-24.33,5.07-2.14.47-6,1.62-6.56,1.62a1.41,1.41,0,0,1-.45-.07c-.2-.28-.33-.38-.42-.38-.26,0-.25.78-.51.78a.19.19,0,0,1-.1,0A98.19,98.19,0,0,1,434.23,175.21Z"/><path class="cls-17" d="M480.71,178.23a1.34,1.34,0,0,1,.51-1.16c.47.87.66,2,2,2,.55,2,1.5,22.84,1.5,27.65,0,.19-.06.38-.06.57s.06.46.06.95c0,1.39-.58,1.86-2.22,1.86l-.64,0c.16-.46.64-.39,1-.58.47-.28,1.43,0,1.43-.74s-1-1.1-1.44-1.17a4.91,4.91,0,0,1-.79-3.22v-.29c0-1.84-.73-7.36-.73-14.11,0-.27,0-.53,0-.8a.87.87,0,0,0,.21-.55,3.33,3.33,0,0,0-.38-1C481.12,187.49,480.71,178.25,480.71,178.23Z"/><path class="cls-16" d="M515.11,149.07a1.16,1.16,0,0,1-.64-.21,1.28,1.28,0,0,0,.06-.35c0-.81-1.15-.43-1.41-1a.29.29,0,0,1,0-.18c0-.11,0-.21.13-.21a4.33,4.33,0,0,0,.63,0c2.37,0,3.41-2.24,4.24-2.24a.75.75,0,0,1,.43.15,1.41,1.41,0,0,0,.59.21c.76,0,.42-1.69,1.35-1.69a1,1,0,0,1,.49.15C518.84,148.33,515.32,149.07,515.11,149.07Z"/><path class="cls-5" d="M500.61,220a1.6,1.6,0,0,1-1.4-.72l1-1a2.07,2.07,0,0,1,1.47-.46c1.2,0,1.87.13,1.87.88a1.07,1.07,0,0,1-1.12,1.14C501.82,219.81,501.2,220,500.61,220Z"/><path class="cls-18" d="M452.1,154.35c0,.88-.09,1.8-.17,2.68-.33-.29-.83-.46-.83-.89s.44-.71.44-1.09c0-.58-1.09-.71-1.09-1.11,0-.55,1.05-.87,1.05-1.76,0-.43-.2-.54-.55-.54h-.24c-.13,0-.22,0-.24-.11A7.64,7.64,0,0,0,451.6,148v-.16a3.73,3.73,0,0,1,.56,2.11c0,.85-.17,1.72-.17,2.57S452.1,153.32,452.1,154.35Z"/><path class="cls-19" d="M358,108.83a1.35,1.35,0,0,1-.85-.39c.12-.55.37-.7.67-.7s.71.18,1,.18a.55.55,0,0,0,.4-.14C358.87,108.32,358.51,108.83,358,108.83Z"/><path class="cls-20" d="M404,77.49c.08.14.23.28.24.43s.37.58.37.84-.38.4-.56.4c-.39,0-.51-.5-.54-.87s-.26-.42-.54-.46C403.23,77.43,403.64,77.51,404,77.49Z"/><path class="cls-16" d="M498.45,120.26c.37,0,.61.41.94.41a.25.25,0,0,0,.12,0l0,.66a1.34,1.34,0,0,1-.55.14c-.5,0-.67-.51-.84-1.09A.62.62,0,0,1,498.45,120.26Z"/><path class="cls-21" d="M441.39,59.47l.06.43v0h-.09c-.51,0-.72.8-1.23.8a.77.77,0,0,1-.4-.14C439.88,59.54,440.66,59.54,441.39,59.47Z"/><path class="cls-18" d="M452,146.33a3.74,3.74,0,0,1-.4,1.52,1.63,1.63,0,0,1-.14-.68c0-.53.21-1.06.21-1.6a1.67,1.67,0,0,0-.06-.44A2,2,0,0,1,452,146.33Z"/><path class="cls-22" d="M431.52,63.92h.05c0,.29.36.64.36.9s-.33.32-.4.32c-.39,0-.24-.82-.66-.92A.71.71,0,0,1,431.52,63.92Z"/><path class="cls-21" d="M444.13,58.12c-.2.45-.38.92-.78.92a1.13,1.13,0,0,1-.62-.28A2.06,2.06,0,0,1,444.13,58.12Z"/><path class="cls-21" d="M442.72,58.76c0,.64-.32.73-.68.73l-.5,0h-.15A2.31,2.31,0,0,1,442.72,58.76Z"/><path class="cls-23" d="M467.28,46.59h.31c-.08.44-.23.69-.47.69a1,1,0,0,1-.57-.33A.75.75,0,0,1,467.28,46.59Z"/><path class="cls-5" d="M477.93,222.61c-.16,0-.33-.13-.5-.36.11-.22.23-.3.36-.3s.42.19.62.23C478.26,222.47,478.1,222.61,477.93,222.61Z"/><path class="cls-16" d="M499.54,120.4c0-.16,0-.33,0-.49,0-.32.09-.59.67-.62-.32.41-.19,1-.68,1.37A1.09,1.09,0,0,0,499.54,120.4Z"/><path class="cls-16" d="M509,120.78c.17,0,.32.11.41.5a3.42,3.42,0,0,1-.45,0,.76.76,0,0,1-.63-.28A1.93,1.93,0,0,1,509,120.78Z"/><path class="cls-17" d="M472.37,211.32c-.12,0-.25-.07-.37-.29a.65.65,0,0,1,.5-.31.74.74,0,0,1,.52.28C472.81,211.08,472.59,211.32,472.37,211.32Z"/><path class="cls-24" d="M285.09,242.78a31.31,31.31,0,0,0,.33-3.77c0-2-.22-3.63-.22-5.93,0-.75,0-1.52,0-2.29,0-3.55-.34-3.15-.34-6.53,0-1.25.05-2.5.05-3.75,0-2.31-.34-6.82-.34-10.87,0-2.44.11-2.83.11-5.41,0-3.95-.28-7.91-.28-11.86,0-3,.12-3.2.12-5.38s-.12-4.22-.12-6.33c0-1.75.07-2,.07-3.08,0-2.7-.46-5.37-.46-8.06,0-.18,0-.22,0-.31,0-.8-.12-1.62-.12-2.41a3.39,3.39,0,0,1,2.87-3.7c2.91-.39,33.91-14.28,35.43-14.28a3.45,3.45,0,0,1,3.68,3.34c0,.43,0,.87,0,1.29,0,.73.34,16.19.34,19,0,1.16,0,1.94,0,2,0,.23.14.56.14.83s-.15.52-.73.54a.19.19,0,0,0-.18.21c0,.39,1.12.49,1.12,2.16,0,.77-.25,1.59-.25,2.36a37.2,37.2,0,0,1,.26,4.19c0,2.35-.18,3.84-.18,7.78,0,6.66.48,7.31.48,13,0,3.09-.14,6.18-.14,9.26,0,1.44,1,27,1,27.57,0,1.94-.13,3.89-.2,5.83,0,.64-1.05,4-7.78,4a69.8,69.8,0,0,1-9.2-1.12c-20.86-2.72-24.6-.89-25.13-5.74A22.57,22.57,0,0,1,285.09,242.78Z"/><path class="cls-24" d="M480.88,176.18a2.8,2.8,0,0,0,.34.89l.27,10.87a.33.33,0,0,0-.08.22c0,.21.19.41.19.62a.32.32,0,0,1-.07.2,13.63,13.63,0,0,1,.37,3.53c0,.79,0,1.57,0,2.36,0,1.31-.06-.22.94,12.76-38.18,3.81-35.35,3.78-37.23,3.78H445c-1.32,0-1.29.71-1.69.71s-.75-.46-1.29-.46c-.12,0-27.09,3.14-30.62,3.14-2.6,0-3.37,0-3.37-1.61,0-.69.09-.81.09-1.76,0-.36,0-.73,0-1.09a8,8,0,0,1,.05-1,3,3,0,0,1-.53-1.82c0-1.83.35,2,1-26.37a1.82,1.82,0,0,1,1.72-1.8c6.21-1.15,20.43-4.28,21.46-4.28a1.21,1.21,0,0,1,.8.27h.38a.76.76,0,0,0,.69-.31l12.54-2.46a1.28,1.28,0,0,1,.67-.27h.05c2.19-.88,4.64-.58,6.84-1.78.75-.41,2.27-.17,3.39-.38,2.67-.52,19.94-4.17,21.79-4.81a2.58,2.58,0,0,1,.77-.16c.58,0,.88.4.89,1.38,0,2.63.4,5.25.4,7.89C480.93,175.51,480.88,176.09,480.88,176.18Z"/><path class="cls-24" d="M370.72,244.69a25.35,25.35,0,0,1-7.13.94c-16.52,0-23.85-8.57-23.85-15.32,0-9,9.07-16.4,15.94-18.1,1.94-.48,3.78-1.36,5.87-1.39s4.17-.53,6.24-.53c10.73,0,20.57,7.86,20.57,11.06,0,.55-.58,1-.87,1.6a2,2,0,0,1,.86-.29c1,0,1.28,3,1.28,3.92,0,3-2.18,11.79-14.72,16.63-.59.23-1.18.94-1.88.94a1.3,1.3,0,0,1-.94-.47A3.71,3.71,0,0,0,370.72,244.69Z"/><path class="cls-25" d="M385.35,188.31a1.33,1.33,0,0,1,.93,1.43c0,.35,0,.71,0,1s0,.53,0,1.41c0,1.77-.21,3.56-.24,5.34,0,1.08-.74.91-1.38,1-.15-.14-.21-.45-.44-.45a.42.42,0,0,0-.23.08c-3.27,1.56-6,.84-43.5,5.77a3.14,3.14,0,0,0-1.27-.28,3.19,3.19,0,0,0-1.78.58H337c-1.69,0-2.26-.49-2.26-2,0-.69.09-.91.09-1.68s-.13-2-.13-2.64.12-1.23.84-1.23h.2c1.3,0,2.26-.87,3.54-1,.12,0,40.78-6.25,45-7C384.65,188.46,385.09,188.67,385.35,188.31Z"/><path class="cls-25" d="M361.56,147.5l-6.51,2a2.77,2.77,0,0,1-.87.1h-.45a1.64,1.64,0,0,0-1.72.88c-5.46,1.66-2,.52-12.89,4.14a2.94,2.94,0,0,0-.51,0,1,1,0,0,0-.83.4c-4.38,1.54-4.09,1.5-4.36,1.5s-.44-.19-.44-.59c0-.24.06-.53.06-1.31a39.31,39.31,0,0,0-.52-4.38c0-1.39,1-2,2.19-2.34.41-.11,26.58-10.78,33.63-13.32h0a7.53,7.53,0,0,0,2-.66l0-.3a.59.59,0,0,0,.41.2c.34,0,.66-.32,1-.32a.56.56,0,0,1,.27.08l1.26-1.2a4.64,4.64,0,0,1,.35,1.91c0,.69-.09,1.37-.09,2,0,1.84.15,6.43.15,6.58a.91.91,0,0,1-.61,1c-1.74.59-3.41,1.51-5.3,1.51h-.09c-.46,0-.52.3-.77.43-1.72.87-3.65,1.07-5.45,1.69l0-.09Z"/><path class="cls-25" d="M372.64,155.65c0,.84,0,1.69,0,2.53,0,1.21.05,1.65.05,1.84,0,.89-.51,1.23-1.3,1.35-6.25.93-36,9.51-37.29,9.51-.68,0-1.07-.5-1.07-1.38,0-.16,0-1,0-1.76a21.07,21.07,0,0,0-.24-3.26c0-1.72,34.11-11.13,35.18-11.34,1.44-.28,3.5-1.41,4.36-1.41.24,0,.37.13.37.54,0,.22,0,.49,0,1.45,0,.64,0,1.29,0,1.93Z"/><path class="cls-25" d="M336,177.87a1.57,1.57,0,0,0,1.07-.45c.12-.06,26.88-7.36,29.51-7.36.47,0,.49.08.49,4.6,0,2.37.17,4.37-1.7,4.68-7.89,1.3-27.58,5.86-29.57,5.86a1.56,1.56,0,0,1-1.58-1.38,5.64,5.64,0,0,0,.07-.69c0-.75-.25-1.48-.25-2.2a2.18,2.18,0,0,1,.29-1.14c.79-.45.3-1.56,1-2h0A1.84,1.84,0,0,0,336,177.87Z"/><path class="cls-26" d="M431.13,173.6c.89,0,1.38.45,1.39,1.75-24.74,4.93-23.52,4.2-23.52,5.92,0,.11,0,.45,0,1.12,0,4.45-.38,8.55-.38,13.36,0,1,0,2,0,3a48.47,48.47,0,0,1-.57,8.23c0,.56.11,1.11.11,1.67a3,3,0,0,1-.07.66c-.65.41-1.55.33-2.06,1a5.85,5.85,0,0,1-.19-1.56c0-2,.51-2.38.51-4.65,0-1.38-.19-2.74-.19-4.12s.26-1.84.26-6c0-1.22,0-2.44,0-3.66,0-13.08.62-12,3.71-12h.11c.44,0,.65-.38.94-.64C432.09,173.34,430.53,173.6,431.13,173.6Z"/><path class="cls-27" d="M414.4,150.83c0-1.74,1.56-2.31,2.53-3.33A5.48,5.48,0,0,1,414.4,150.83Z"/><path class="cls-28" d="M352,150.52v-.06a1.4,1.4,0,0,1,1.42-1.35c.67,0,.83.42,1.62.43A12,12,0,0,1,352,150.52Z"/><path class="cls-29" d="M337.43,204.21c.11-.22.45-.32.45-.6s-.28-.56-.28-.86.47-.38.52-.38c.38,0,.25.54.38.8a.6.6,0,0,0,.56.4c.4,0,.46-.2,1.24-.2.19,0,.31,0,.31.16a1,1,0,0,1-.13.38Z"/><path class="cls-30" d="M399.05,144.13l-.49,0a.84.84,0,0,1-.22-.53c0-.55.81-.86,1.11-.86a1.82,1.82,0,0,1,1.21.75A2,2,0,0,1,399.05,144.13Z"/><path class="cls-31" d="M444.1,275.1a.82.82,0,0,1-.83.8.74.74,0,0,1-.78-.8.73.73,0,0,1,.78-.79A.78.78,0,0,1,444.1,275.1Z"/><path class="cls-32" d="M334.21,178.85c0-.56.24-1,1.17-1.1a1.9,1.9,0,0,0-.06.54c0,.13,0,.25,0,.38,0,.54-.09,1-1,1.12A4.52,4.52,0,0,1,334.21,178.85Z"/><path class="cls-33" d="M421.45,216.51a1.24,1.24,0,0,1-.77-.36c.67-.59,1-.85,1.19-.85s.3.18.51.51C422.11,216.25,421.81,216.51,421.45,216.51Z"/><path class="cls-34" d="M369.7,133.79a2.17,2.17,0,0,1,.68.12c-.44.31-.76,1-1.31,1a1.14,1.14,0,0,1-.73-.36A1.59,1.59,0,0,1,369.7,133.79Z"/><path class="cls-35" d="M418.21,145.84c-.39,0-.75-.11-.75-.45,0-.1.13-.85.79-.85.33,0,.7.16,1,.18Z"/><path class="cls-36" d="M314.91,262c-.06.25-.15.5-.38.5,0,0-.78-.15-.78-.8a.5.5,0,0,1,.46-.57C314.74,261.13,314.83,261.74,314.91,262Z"/><path class="cls-37" d="M371.46,132.94c.2,0,.41.16.63.63a3.11,3.11,0,0,1-1,.43.8.8,0,0,1-.63-.39C370.76,133.42,371.11,132.94,371.46,132.94Z"/><path class="cls-38" d="M365.31,117.26c0-.27.07-.5.41-.54a.7.7,0,0,1,.53.7.42.42,0,0,1-.46.45C365.36,117.87,365.31,117.48,365.31,117.26Z"/><path class="cls-39" d="M370.72,244.69c.14-.57.27-1.14.83-1.14a1.44,1.44,0,0,1,.54.13C372,244.48,371.35,244.58,370.72,244.69Z"/><path class="cls-40" d="M338.31,155h-.21a1.67,1.67,0,0,0-.32,0c.14-.55.33-.91.61-.91s.44.17.73.56A.88.88,0,0,1,338.31,155Z"/><path class="cls-41" d="M411.05,177.77h.14a.36.36,0,0,0,0,.1c0,.18.12.38.12.55s-.5.36-.55.36a.69.69,0,0,1-.6-.37A.94.94,0,0,1,411.05,177.77Z"/><path class="cls-42" d="M430.05,225.25a1.49,1.49,0,0,1,.16-.6c.24.63,1,.91,1.05,1.67C430.69,226.07,430.05,225.86,430.05,225.25Z"/><path class="cls-32" d="M336.16,177.52h.35a1.25,1.25,0,0,0,.57-.1c-.28.43-.57.77-.94.77a1.11,1.11,0,0,1-.76-.44A1.12,1.12,0,0,1,336.16,177.52Z"/><path class="cls-43" d="M405.76,211.35a2,2,0,0,1,1.08,1.69l-1.09-.92C405.75,211.86,405.76,211.6,405.76,211.35Z"/><path class="cls-44" d="M298.14,148.07h0a.46.46,0,0,1-.4.36c-.18,0-.54-.22-.54-.41a.41.41,0,0,1,.45-.42A.46.46,0,0,1,298.14,148.07Z"/><path class="cls-45" d="M342.54,266.75a.76.76,0,0,0,.27.05c.16,0,.35,0,.51,0s.35.06.35.31,0,.34-.19.34-.54-.28-.81-.28a.31.31,0,0,0-.13,0Z"/><path class="cls-46" d="M277.43,162.47c0,.09-.16.21-.26.33-.26-.16-.42-.14-.42-.36s.15-.26.32-.26A.4.4,0,0,1,277.43,162.47Z"/><path class="cls-47" d="M384.26,198.72c-.2,0-.24-.29-.28-.58a1,1,0,0,1,.41-.13c.16,0,.27.1.27.4a.28.28,0,0,1,0,.09A.65.65,0,0,1,384.26,198.72Z"/><path class="cls-48" d="M385,188.29l.35,0c-.05.43-.2.56-.38.56a1.93,1.93,0,0,1-.65-.24A.72.72,0,0,1,385,188.29Z"/><path class="cls-49" d="M461.1,273.67c0,.27,0,.5-.29.5h0a.46.46,0,0,1-.25-.28c0-.09.29-.41.35-.48Z"/><path class="cls-50" d="M400.29,276.83c-.76,0-.91-1-1.6-1.14a1.47,1.47,0,0,1,.79-.26c.53,0,.88.42,1.22.84a.32.32,0,0,1,.08.22C400.78,276.59,400.74,276.83,400.29,276.83Z"/><path class="cls-51" d="M395.31,273.71c.38,0,.68.45,1,.77l-1.61.61a1.07,1.07,0,0,1-.14-.52A.85.85,0,0,1,395.31,273.71Z"/><path class="cls-52" d="M376.59,269.39a5.19,5.19,0,0,1-2.34-.86l2.43.44Z"/><path class="cls-53" d="M382.58,273.49a.31.31,0,0,1-.35.34h-.07c-.22-.13-.44-.29-.44-.55s.21-.34.31-.34A.5.5,0,0,1,382.58,273.49Z"/><path class="cls-54" d="M347.06,255c0-.09.11-.22.19-.41.15.19.3.31.3.43s-.12.22-.18.33C347.28,255.24,347.06,255.1,347.06,255Z"/><path class="cls-3" d="M268.83,237.22a.49.49,0,0,1,.56.43c-.08.27-.21.5-.52.5s-.57-.52-.57-.67S268.63,237.22,268.83,237.22Z"/><path class="cls-55" d="M290.37,136.79c0,.12-.18.25-.31.4-.21-.19-.36-.21-.36-.43a.31.31,0,0,1,.32-.32C290.23,136.44,290.37,136.71,290.37,136.79Z"/><path class="cls-56" d="M439.1,115.4c0,.62-.74.82-.94,1.46-.22-.26-.3-.32-.3-.35s.65-1.58.7-1.7C438.89,115,439.1,115,439.1,115.4Z"/><path class="cls-57" d="M400.61,135a3.23,3.23,0,0,1-.24.71,2.63,2.63,0,0,1-.28-.86c0-.35.37-.38.38-.38s.15.12.15.26,0,.18,0,.25Z"/><path class="cls-58" d="M391.37,129.63c0,.21-.12.31-.23.31a.24.24,0,0,1-.12,0c-.27-.15-.47-.25-.47-.48s.1-.19.22-.19C391.06,129.23,391.23,129.5,391.37,129.63Z"/><path class="cls-59" d="M441.46,59.88v0c.35,0,.6.12.6.46a.66.66,0,0,1,0,.14.34.34,0,0,1-.17.21h0c-.41-.13-.38-.5-.41-.83Z"/><path class="cls-60" d="M391.89,131.43c.1,0,.17.11.2.29l-.18.35c-.15-.09-.33-.13-.33-.23S391.72,131.43,391.89,131.43Z"/><path class="cls-61" d="M461.55,135.42c0,.13-.16.19-.46.21,0,0-.14-.16-.14-.28s.19-.25.27-.34C461.35,135.13,461.55,135.24,461.55,135.42Z"/><path class="cls-62" d="M441.62,83.48v0c0,.18-.08.28-.19.28s-.34-.31-.34-.43,0-.2.16-.2S441.51,83.36,441.62,83.48Z"/><path class="cls-6" d="M522.48,161.19a2.77,2.77,0,0,1,.49,0,.62.62,0,0,0,.31.08c.23,0,.45-.11.68-.11a1.32,1.32,0,0,1,1.48,1.19,1.39,1.39,0,0,1-.33.86c-1.27,1.58-2.17,3.78-4.58,3.78-3.79,0-3.38-2.34-3.38-2.48,0-1.61.73-2.21,2.5-2.64A11.77,11.77,0,0,1,522.48,161.19Z"/><path class="cls-63" d="M518.37,144.69a.73.73,0,0,0,.13.42h0c-1,0-1.67,2.46-4.84,2.46a4.53,4.53,0,0,1-.52,0h-.2c-.51,0-.61-.25-.61-.56s0-.4,0-.58a9.2,9.2,0,0,1-.31-1.69,2.79,2.79,0,0,1,1.7-2.55c.22-.12,1.1-1.48,1.3-1.48h0c1.5.77,4.19.74,4.19,1.85a3.79,3.79,0,0,1-.23.94C518.88,143.91,518.37,144.22,518.37,144.69Z"/><path class="cls-16" d="M518.57,140.72c0-.13,0-.3.09-.61.22.36.48.62.48.84s-.26.33-.34.33-.2-.3-.22-.49A.15.15,0,0,1,518.57,140.72Z"/><path class="cls-64" d="M446.66,171.87c.17,0,.14.29.19.45a.6.6,0,0,1-.53.29.65.65,0,0,1-.19,0C446.29,172.31,446.36,171.87,446.66,171.87Z"/><path class="cls-65" d="M482,188.56c0,.14-.12.28-.45.42-.07-.22-.28-.44-.28-.67a.46.46,0,0,1,.24-.37C481.68,188.15,482,188.35,482,188.56Z"/><path class="cls-66" d="M290.81,204.64a1.48,1.48,0,0,0,0,.21,5.47,5.47,0,0,1-.3-1.93c0-.49,0-1,.06-1.49.52.2,2,.55,2,1.29S290.81,202.74,290.81,204.64Z"/><path class="cls-67" d="M288.63,205.06a2.35,2.35,0,0,1-.74,1.53c-.68-1.1-.33-2.13-.54-3.41C288.18,203.82,288.63,204.41,288.63,205.06Z"/><path class="cls-68" d="M307.34,207.21a3.29,3.29,0,0,1,.58-1.54,3,3,0,0,1,.56,1.59,2.34,2.34,0,0,1-.56,1.47A3.2,3.2,0,0,1,307.34,207.21Z"/><path class="cls-69" d="M324.12,197.1a1.83,1.83,0,0,1-.56,1.23v-2.71A3.07,3.07,0,0,1,324.12,197.1Z"/><path class="cls-70" d="M310,158.44a5.39,5.39,0,0,1,.81.27,4.2,4.2,0,0,1-1,.45s-.2,0-.2-.28C309.61,158.86,309.6,158.44,310,158.44Z"/><path class="cls-71" d="M300.07,165.64c.11,0,.18.12.21.3s-.17.36-.37.36-.16-.11-.16-.22S299.89,165.64,300.07,165.64Z"/><path class="cls-72" d="M361.54,147.52h0l0,0a.48.48,0,0,1-.33-.44.78.78,0,0,1,.11-.36s.13-.07.2-.07l.07,0a.38.38,0,0,1,.16.29c0,.2-.18.38-.23.58Z"/><path class="cls-73" d="M334.74,168.65a1.46,1.46,0,0,1,.29,0c.5,0,.85.21,1.05.92Z"/></g><g id="object-2" data-name="object"><path class="cls-3" d="M195.54,168.06c.27,0,.55.05.83.05a1.3,1.3,0,0,0,.73-.2c4.07-.49,8.16-.21,12.24-.43a3.39,3.39,0,0,1,.64,0h.29a2.5,2.5,0,0,0,1.14-.2l6.39-.35a4.76,4.76,0,0,0,1.17.19,2,2,0,0,0,.89-.19,4,4,0,0,0,.84.08c.89,0,1.77-.23,2.65-.23a3.6,3.6,0,0,1,1.25.2c.6.27.87.6.87,1a1.59,1.59,0,0,1-.52,1,2.64,2.64,0,0,1-2,.7c-.47,0-1-.05-1.43-.05a3.46,3.46,0,0,0-1.07.14,5.32,5.32,0,0,0-.79-.05,7.34,7.34,0,0,0-1.91.27,12.12,12.12,0,0,0-1.59-.1c-2.13,0-4.24.43-6.36.46-14.35.26-13,1-14.07,1a1.52,1.52,0,0,1-1-.38,1.27,1.27,0,0,0-.56-.15,1.23,1.23,0,0,0-.93.5q-.66,0-1.32,0c-3,0-6.72.4-7.71.4s-1.66-.22-1.66-1.39c0-.93.5-1.95,5.74-1.95h1.39c.76,0,1.52,0,2.28-.09a1.62,1.62,0,0,1,.77-.16c.29,0,.59,0,.88.06h1.46A1.36,1.36,0,0,1,195.54,168.06Z"/><path class="cls-3" d="M135.66,209.86h-.47a1.39,1.39,0,0,0-.71.16h-.08a2.17,2.17,0,0,1-1.21-.36.88.88,0,0,0-.4-.12.57.57,0,0,0-.32.1c-9,.47-6.82.37-8.43.39a2.87,2.87,0,0,0-1-.17,5.14,5.14,0,0,0-1.15.16c-.64-.09-1.14-.79-1.84-.79s-.74.38-1.09.38c-.55,0-1.64-.52-1.64-1.47,0-.57.28-1.12,1.72-1.12h9.5a17.33,17.33,0,0,0,3.93-.31c.44.11.92.06,1.36.21l7.19,0a2.25,2.25,0,0,0,.58.07l.6,0a1.92,1.92,0,0,1,.53.06l2.35-.11a13.22,13.22,0,0,0,1.64.17,3,3,0,0,0,1.06-.17,3.12,3.12,0,0,0,1.57.39c.93,0,1.86-.3,2.79-.33a1.13,1.13,0,0,0,.64.19,2.24,2.24,0,0,0,.82-.2,3.67,3.67,0,0,0,2.16.61c.82,0,1.39-.15,1.93-.15.73,0,1.21.24,1.21.86a2.42,2.42,0,0,1-.3,1,.71.71,0,0,0-.27-.05c-.58,0-.35.81-.7,1l-2,0a3.4,3.4,0,0,0-1.08-.18,3.82,3.82,0,0,0-1.1.17h-3.24a2.07,2.07,0,0,0-.88-.15l-.79,0a2,2,0,0,1-.77-.12c-1.44-.13-2.88-.18-4.33-.18s-3.19.06-4.79.1a1.3,1.3,0,0,0-.69-.16h-.45a1.35,1.35,0,0,1-.62-.12l-.73,0A1.47,1.47,0,0,1,135.66,209.86Z"/><path class="cls-3" d="M130.44,315.12a4.35,4.35,0,0,0-1,.23,2.2,2.2,0,0,1-1.39-.29h0c-.45,0-.76.52-1.21.52a.68.68,0,0,1-.37-.11,17.94,17.94,0,0,0-2.07-.11c-1.81,0-3.61.2-5.41.2-5.88,0-6.63-.38-6.63-1.36s1.46-1.56,2.84-1.56c.85,0,1.71.18,2.55.18,1.09,0,2.49-.12,3.73-.12s7.63.2,9.38.25a2.3,2.3,0,0,1,.81-.14,4.81,4.81,0,0,1,.84.1h.35c1.33,0,2.68-.17,4-.17,1.54,0,1.68.24,6.38.24h2.59c2.56,0,2.3.06,4.9.06h3.53c1.48,0,1.63.48,1.63,1,0,1.09-1.18.91-2.27,1a3.11,3.11,0,0,1-1,.16,4.12,4.12,0,0,1-1-.14,3.5,3.5,0,0,0-1.34-.25c-1,0-1.93.3-2.9.3h-.23a2.08,2.08,0,0,1-.61.07h-.65a1.78,1.78,0,0,0-.81.16c-1.33-.08-2.65-.1-4-.1-3,0-6,.13-9.06.13h-.83A1,1,0,0,0,130.44,315.12Z"/><path class="cls-3" d="M152.85,287.34l-.81,0a2,2,0,0,0-.9.17l-5.73.39a1.19,1.19,0,0,1-.63.14h-.47a1.19,1.19,0,0,0-.66.15,1.28,1.28,0,0,0-.8-.28c-.58,0-1.17.35-1.75.35a1.32,1.32,0,0,1-.39-.06c-.52-.31-1.26-.46-1.26-1.13a1.36,1.36,0,0,1,.13-.53c.74-1.35,2.15-1.11,3.33-1.35a2.38,2.38,0,0,1,.53-.05c.34,0,.69.05,1,.05a2,2,0,0,0,1.2-.34,3.5,3.5,0,0,0,1.1.17,8.21,8.21,0,0,0,1.39-.15h.69c5,0,8.93-.76,10.35-.76,1.07,0,1.29.16,2.39.16,1.79,0,3.56-.46,5.35-.46.3,0,.61,0,.92,0A4.06,4.06,0,0,0,169,284c.39,0,.68,0,.79,0a.81.81,0,0,1,.83.89c0,.43-.32.44-.63.44h-.08a7.83,7.83,0,0,0-2,.46c-14,1.66-12.05,1-14.32,1.51A2.71,2.71,0,0,1,152.85,287.34Z"/><path class="cls-3" d="M243.09,291.08a1.11,1.11,0,0,1-.82-.41l-7.12.21h-.07c-.24,0-.47.1-.71.1a.77.77,0,0,1-.25,0,6.45,6.45,0,0,0-1.69-.19c-.88,0-1.77.1-2.65.1s-3.3-.23-3.3-1.26c0-1.22,1.66-1,2.59-1h3.27c7.49,0,6.43-.18,13.81-.18,8.15,0,9,.06,10.36.46a.94.94,0,0,1,.39.68c0,.39-.42.69-.75,1a4.28,4.28,0,0,1-2.39.6c-1,0-2.16-.21-4.66-.21-.59,0-1.18,0-1.77,0a1,1,0,0,1-.46.08l-.66,0a1,1,0,0,0-.64.18,4.79,4.79,0,0,0-1.43-.33,2,2,0,0,0-.53.08A1.27,1.27,0,0,1,243.09,291.08Z"/><path class="cls-3" d="M167.86,285.75a2.24,2.24,0,0,1,1.67-.63l.38,0c.2,0,.38-.05.38-.34a.6.6,0,0,0-.6-.65c-.24,0-.35.1-.7.1a1.87,1.87,0,0,1-1.13-.41l3-.07c.59,0,1.11.33,1.11.89C172,285.49,171,285.42,167.86,285.75Z"/><path class="cls-3" d="M225.72,168c0,.43-.11.84-.77.91a2.07,2.07,0,0,0,.22-.86,1.42,1.42,0,0,0-.57-1.12,1.69,1.69,0,0,1,.38,0C225.66,166.9,225.72,167.37,225.72,168Z"/><path class="cls-3" d="M141.87,206.6a1.17,1.17,0,0,1,.87.45,4.31,4.31,0,0,1-1,.33.77.77,0,0,1-.67-.44A1.42,1.42,0,0,1,141.87,206.6Z"/><path class="cls-3" d="M145.93,206.75c.57,0,1.14.2,1.71.2h.15a3.58,3.58,0,0,1-1.45.37,2.31,2.31,0,0,1-1.25-.37A1.72,1.72,0,0,1,145.93,206.75Z"/><path class="cls-3" d="M139.27,287.4a2.18,2.18,0,0,1,.31-.89.66.66,0,0,0,0,.14c0,.77.81,1,1.14,1.52C139.69,288,139.27,287.84,139.27,287.4Z"/><path class="cls-3" d="M219.31,170c-.4,0-.8-.05-1.2-.05a2,2,0,0,0-.34,0,7.15,7.15,0,0,1,1.78-.59,1.38,1.38,0,0,1,.92.37A2.41,2.41,0,0,1,219.31,170Z"/><path class="cls-3" d="M158.62,209.46a.76.76,0,0,1-.85.87h-.13v-.27c0-.43,0-.82.48-.82a1.33,1.33,0,0,1,.49.11A.49.49,0,0,1,158.62,209.46Z"/><path class="cls-3" d="M129.41,315.35a3.49,3.49,0,0,1,1.29-.51c.27,0,.38.18.44.54Z"/><path class="cls-3" d="M127.05,315.73a1,1,0,0,1-.62-.26c.4-.1.81,0,1-.62.07-.19.14-.26.21-.26s.25.31.34.47C127.73,315.4,127.43,315.73,127.05,315.73Z"/><path class="cls-3" d="M257.24,289.71c0,.36-.52.61-1.09.84.07-.43.52-.78.52-1.22a.78.78,0,0,0-.16-.46C257,289.21,257.24,289.48,257.24,289.71Z"/><path class="cls-3" d="M148.16,284.84a3,3,0,0,1-1.28.31,2.4,2.4,0,0,1-1.21-.33Z"/><path class="cls-3" d="M219.86,166.89a1.94,1.94,0,0,1-1,.32,2,2,0,0,1-1-.32Z"/><path class="cls-3" d="M193.56,171.29a1.56,1.56,0,0,1-.3,0c.21-.48.45-.77.77-.77a1.06,1.06,0,0,1,.72.42A2.41,2.41,0,0,1,193.56,171.29Z"/><path class="cls-3" d="M122.67,210.14a2.08,2.08,0,0,1-.77-.13,1.88,1.88,0,0,1,1-.33A2,2,0,0,1,124,210C123.58,210,123.12,210.14,122.67,210.14Z"/><path class="cls-3" d="M196,167.88c.29,0,.58,0,.86,0h.24a1,1,0,0,1-.77.34c-.36,0-.74-.14-1.1-.14h-.14A1.52,1.52,0,0,1,196,167.88Z"/><path class="cls-3" d="M152.48,287.53c-.36,0-.73,0-1.09,0h-.25a1.43,1.43,0,0,1,1-.33c.41,0,.83.11,1.24.11h.19A1.87,1.87,0,0,1,152.48,287.53Z"/><path class="cls-3" d="M210.28,167.2c.31,0,.63.05.95.05h.18a1.76,1.76,0,0,1-1.15.43,2.57,2.57,0,0,1-.92-.19A1.44,1.44,0,0,1,210.28,167.2Z"/><path class="cls-3" d="M150,210.33c-.38,0-.76.07-1.14.07a1.76,1.76,0,0,1-1.08-.31H148c.39,0,.79-.07,1.18-.07a1.88,1.88,0,0,1,1.13.31Z"/><path class="cls-3" d="M146.14,315.39c-.32,0-.64-.05-1-.05H145a1.25,1.25,0,0,1,.85-.3c.34,0,.69.09,1,.09h.19A1.55,1.55,0,0,1,146.14,315.39Z"/><path class="cls-3" d="M152.56,315.42a1.8,1.8,0,0,1-1-.34l2,0A1.73,1.73,0,0,1,152.56,315.42Z"/><path class="cls-3" d="M153.5,210.34a1.72,1.72,0,0,1,1-.36,2.26,2.26,0,0,1,1.15.37Z"/><path class="cls-3" d="M246.51,291.26c-.28,0-.57-.05-.85-.05h-.09a.71.71,0,0,1,.64-.41c.33,0,.68.19,1,.19h.12A1.18,1.18,0,0,1,246.51,291.26Z"/><path class="cls-3" d="M192.8,167.87a1.69,1.69,0,0,1,.83.25l-1.65.1A1.17,1.17,0,0,1,192.8,167.87Z"/><path class="cls-3" d="M242.88,291.28c-.24,0-.45-.17-.61-.61l1.34.29A1.44,1.44,0,0,1,242.88,291.28Z"/><path class="cls-3" d="M131.65,312.62a1.46,1.46,0,0,1,.82.29l-1.65,0A1.31,1.31,0,0,1,131.65,312.62Z"/><path class="cls-3" d="M144.56,288.2c-.25,0-.51,0-.77,0h-.14a1.52,1.52,0,0,1,1-.28h.77A1.11,1.11,0,0,1,144.56,288.2Z"/><path class="cls-3" d="M138.58,210c-.27,0-.54.05-.8.05a1.13,1.13,0,0,1-.84-.31h.14c.24,0,.47,0,.7,0a1.35,1.35,0,0,1,.92.29Z"/><path class="cls-3" d="M135.39,210.05c-.26,0-.52,0-.78,0h-.13a1.44,1.44,0,0,1,1-.3,6.88,6.88,0,0,1,.77.07A1.19,1.19,0,0,1,135.39,210.05Z"/><path class="cls-3" d="M132.94,209.85c-.16,0-.31-.18-.47-.22.06-.21.1-.48.34-.48s.24.22.38.5C133.1,209.8,133,209.85,132.94,209.85Z"/><path class="cls-3" d="M153.61,207c-.32,0-.64.42-1,.42s-.33-.1-.5-.41Z"/><path class="cls-3" d="M234.63,291.23a.72.72,0,0,1-.51-.29c.23-.07.44-.33.66-.33s.24.07.37.27A.69.69,0,0,1,234.63,291.23Z"/><path class="cls-3" d="M133,206.51a1.77,1.77,0,0,1,.87.4c-.22,0-.45,0-.67,0a.93.93,0,0,1-.69-.25A.74.74,0,0,1,133,206.51Z"/></g><g id="grass"><path class="cls-74" d="M113.55,352.92a1.4,1.4,0,0,1-.49-.11c-.94-1.56-2.67-2.2-4-3.14-9.08-6.25-12-6.51-20.55-7.77a.69.69,0,0,1-.52.33c-.66,0-1-1.75-1.71-1.75-.25,0-.54.25-.89.91-8.7-.66-11.46-.59-15-3.93v-2a50.15,50.15,0,0,1,6.9-.66c14.56,0,29.06,7.45,36.94,15.94a.43.43,0,0,1,.07.23c0,.24-.24.42-.28.66a1.24,1.24,0,0,0,0,.27c0,.21,0,.42,0,.63v.09a.54.54,0,0,1-.26.33Z"/><path class="cls-74" d="M77.79,333.85A8.88,8.88,0,0,0,76,334a5.27,5.27,0,0,0-.68,0c-1.18,0-2.34.27-3.5.37-.25,0-.51.3-.75.3s-.38-.33-.38-.54c0-.66,2.25-3.88,5.07-4.56a1.09,1.09,0,0,1,.5-.1l.51,0a1,1,0,0,0,.65-.19,21.79,21.79,0,0,1,6.61-.94h.19a.67.67,0,0,0,.46.15l.47,0a.63.63,0,0,1,.44.14c3.38.25,16.31.52,27.87,18.33a1.14,1.14,0,0,1,.16.55,1.08,1.08,0,0,1-.51.85C97.2,334.42,80.28,334,79.92,334h-.35A8.9,8.9,0,0,0,77.79,333.85Z"/><path class="cls-74" d="M123.7,352.41h0c-1.56-.86-2.25-2.53-3.43-3.74a4.08,4.08,0,0,0-1-1.27c-11.06-11.54-9.76-10.41-10.46-10.84a.62.62,0,0,1-.36-.52,2.11,2.11,0,0,1,.41-.92c.21-.36.39-.49.59-.49,1.63,0,13,8.72,16.3,18.1,0,.45-.16.58-.35.58a2.81,2.81,0,0,1-.66-.21C124.32,353,124.2,352.41,123.7,352.41Z"/><path class="cls-74" d="M126.54,351.4a.5.5,0,0,1-.15.36c-1.84-3.09-6.78-12.91-17.07-18.13a4.9,4.9,0,0,1,3.16-1.1c1.85,0,9.83,2.68,13.93,18.5A.72.72,0,0,1,126.54,351.4Z"/><path class="cls-74" d="M113.13,348.36l.35-1.4c.88.57.86,1.79,1.71,2.38a1.29,1.29,0,0,1,.17.59.82.82,0,0,1-.18.51A9.86,9.86,0,0,1,113.13,348.36Z"/><path class="cls-74" d="M113.9,352.09a.71.71,0,0,0-.4-.63l.66-.76c.54.63,1.45,1,1.45,2a1.72,1.72,0,0,1-.06.44,3.62,3.62,0,0,1-1,.32c-.3,0-.55-.17-.71-.72a1.62,1.62,0,0,1,0-.22A1,1,0,0,0,113.9,352.09Z"/><path class="cls-74" d="M123.67,352.41h0c.16,0,.28-.41.45-.41s.35,1,1,1a.84.84,0,0,0,.57-.28,1,1,0,0,1,.36.7.76.76,0,0,1-.78.69C124.55,354.12,124.22,353.31,123.67,352.41Z"/><path class="cls-74" d="M113.82,352.71a.94.94,0,0,0,.86.4l.57,0a1.51,1.51,0,0,1,.3,0c-.42.63-.79.88-1.13.88-.5,0-.94-.53-1.36-1.18Z"/><path class="cls-74" d="M76,334a4.94,4.94,0,0,1,3.55,0Z"/><path class="cls-74" d="M126.39,351.76l0-.73c.43.34.8.69.8,1.16a1.27,1.27,0,0,1-.27.73A1.56,1.56,0,0,1,126.39,351.76Z"/><path class="cls-74" d="M119.25,347.4c.61.15,1,.46,1,1.08a1.28,1.28,0,0,1,0,.19A1.68,1.68,0,0,1,119.25,347.4Z"/><path class="cls-74" d="M115.52,350.66a.47.47,0,0,1-.34-.22c0-.36,0-.73,0-1.1a1.43,1.43,0,0,1,.54.93.79.79,0,0,1-.06.29A.14.14,0,0,1,115.52,350.66Z"/><path class="cls-74" d="M84.89,328.29a.84.84,0,0,1,.72.34c-.26,0-.55.14-.8.14a.59.59,0,0,1-.57-.41C84.46,328.34,84.68,328.29,84.89,328.29Z"/><path class="cls-74" d="M76.59,329.29l.6,0,.25,0a1.08,1.08,0,0,1-.82.31c-.25,0-.5,0-.74,0h-.1A1.12,1.12,0,0,1,76.59,329.29Z"/><path class="cls-74" d="M113.48,351.79c0-.11,0-.22,0-.33a1.78,1.78,0,0,1,.44-.08c.53,0,.54.61.54.62,0,.34-.34.42-.67.49A.78.78,0,0,1,113.48,351.79Z"/><path class="cls-74" d="M119.81,338.15c.13,0,.24.08.24.29a.07.07,0,0,1,0,.05c-.12.12-.18.28-.39.28a.3.3,0,0,1-.32-.28.43.43,0,0,1,0-.11C119.38,338.26,119.67,338.15,119.81,338.15Z"/></g><g id="skateboarding"><path class="cls-75" d="M236.55,174.51c-1.16,0-2-.28-2.11-1-.75-3.27-3.61-11.11-3.61-15.11,0-2.52,1.85-6.42,4.83-6.42a3,3,0,0,1,1.09.2s2.83-3.64,6-3.64c4.26,0,14.61,14.31,14.61,18.33,0,1.81-2.7,3.28-4.53,3.28a3.58,3.58,0,0,1-1.16-.17S241.18,174.51,236.55,174.51Z"/><path class="cls-76" d="M249.56,165.79c0,.8.43,1.84,2.68,1.84a11.22,11.22,0,0,0,1.18-.07h0c0,.06-3.53,4.13-3.53,7a2.75,2.75,0,0,0,.16.95s-3.88,4.41-5.31,4.41c-.57,0-2-1.9-3.11-1.9a1,1,0,0,0-.46.12c-1,.53-2.7,6.63-2.7,6.63s-5.4-4.85-7.09-7.25c0,0,4-4.22,4-6.57a1.43,1.43,0,0,0-.21-.8,4.22,4.22,0,0,1-.54,0c-2.67,0-4.64-1.75-4.64-3.86,0-2.31,2.08-4.91,4.3-4.91.5,0,3.46.4,3.46,3.18a2.62,2.62,0,0,1-.39,1.41l1.69,1s1.54-3.37,3.11-4.71v0a1.33,1.33,0,0,0,1.44,1.37,6.17,6.17,0,0,0,2.67-.86,3,3,0,0,0-.5,1.39c0,.56.36,1.07,1.67,1.07a10.44,10.44,0,0,0,2.3-.33A2.55,2.55,0,0,0,249.56,165.79Z"/><path class="cls-76" d="M291.89,195.22s17.09.76,17.44.76c3.5,0,6.4-.42,7.2-1.55,1.06-1.5,3.62-7.33,4.85-7.92a3.78,3.78,0,0,1,1.77-.34c1.84,0,4.24.45,10,.45,2.13,0,3.68-.06,3.68-.06a1.81,1.81,0,0,1,.11.62c0,.64-.34,1.56-2.25,1.68-3,.19-6.47.93-7.08,1.92s-.51,6.46-1.33,7a3,3,0,0,1-1.54.3c-.89,0-2.12-.18-2.26-.18-1.09,0-1.56,4.91-4,5.19a9,9,0,0,1-1,.06c-.95,0-1.52-.2-3-.2l-27.59,2Z"/><path class="cls-76" d="M151.6,182.79s-6.54-6.12-9.73-8.89-5.59-3.88-5.88-5.63c-.45-2.62-1.69-7.83-1.69-7.91,0-1.23,3.76-3.29,4.93-3.29.42,0,4,2.51,5.93,2.88a3.18,3.18,0,0,1,2.2,2.86.59.59,0,0,1-.13.44c-.38.4-2,1.21-2,2.67,0,2.73,9.41,8.35,11.79,9.39Z"/><path class="cls-75" d="M237.22,166.28l1.75,1-.15.6-1.88-.88Z"/><path class="cls-77" d="M292.78,194s-6.68,13.43-7.28,14.71l-6.58,0s3.57-6.11,5.38-9.7a41.66,41.66,0,0,1,3.34-5.64Z"/><path class="cls-77" d="M239.45,185s-7.66-7.87-8.68-8.14l-4,4.47,6.13,3.14Z"/><path class="cls-77" d="M149.6,185.14s3.35-4.27,4.84-6.28S158,174.1,158,174.1l3.59,2.33s-1.54,1.69-3.81,4.33-5.16,6.48-5.16,6.48Z"/><path class="cls-78" d="M204.39,231.64c0,.18,0,1.27,0,3,0,2.8,0,7.23,0,11.73,0,21.77,1,27.4,1,27.63,0,1.53-7.81,23.56-7.81,23.56s-3.43,0-7.14,0c-7.61,0-11.79.17-11.79.17s5.69-19.7,5.69-20.85c0-1-1.14-1.42-1.14-2.47,0-.75.6-1.28.6-2.21,0-2.58-8.54-25.36-8.54-25.36s-29.84,12.85-31.89,12.85c-3.62,0-36.73-18.33-36.73-18.33l9.93-17L144,238.8s.91-1.5,1.83-1.5c.66,0,.6,1.28,1.15,1.28,1.82,0,20.42-25.9,26-28.41C173,210.17,204.26,231,204.39,231.64Z"/><path class="cls-79" d="M287.41,193.8s-21.43-3-25.07-4.05c-18.59-5.19-29.71-5.36-29.71-5.36l-5.94-3.21s-5.83.19-9.33,1.51c-3.23,1.23-25.06,2.63-30.28,2.63-1.26,0-1.2-.11-2.44-.11a25.85,25.85,0,0,0-4.11.49,44.46,44.46,0,0,1-7.61-3.3c-4.38-2.35-11.67-5.63-11.67-5.63s-2.22,2.38-4.1,4.67-4,5.14-4,5.14,21.57,14.31,22.29,14.31a8,8,0,0,0,1.64-.37c1.24-.29,11.43-1,11.43-1s-4.1,2-7.35,3.88-4.54,3.34-6.13,3.77c-1.19.32-2.53.75-2.53,1.8a2.25,2.25,0,0,0,.5,1.25s.68,3.21,10.82,10.53a92.7,92.7,0,0,0,21.11,11.13s19.86-18.43,23.91-21.44c1-.77,7.41-5.11,23-5.11,8.85,0,24,.82,28.2,1.52Z"/><path class="cls-80" d="M105.86,243s3.59-6.24,6.31-10.85,5.11-9.1,5.11-9.1l-5.83-2.72s-2,4.16-4.63,9.55-5.8,11.2-5.8,11.2Z"/><path class="cls-80" d="M175.48,297.84s8.92-.46,17.75-.46c4.1,0,7,.07,7,.07l-2.56,6.76s-2.23,0-5.56,0c-4.14,0-5.67,0-7.27,0-5.83,0-11.27.21-11.27.21Z"/><path class="cls-77" d="M173.3,334.75l-2.11,6.66h1c8.82,0,12.75,1,24.12,1,2.44,0,4-.05,4-.05l1-2.29s-2.61-3.12-5.42-3.88Z"/><path class="cls-81" d="M176.52,324a1.35,1.35,0,0,0-.24,0c-.33,0-.9.14-.9,1.12,0,.68.18.82.18,1.59,0,2.75-2.32,8.19-2.32,8.19a17.39,17.39,0,0,0,5.67,2.43c2.71.45,14.23,1.39,14.23,1.39s1.56-2.54,2.8-2.54H196s-4.58-2.48-6.5-4.77a19.47,19.47,0,0,1-2.75-4.23Z"/><path class="cls-82" d="M183.75,304.2c3.31,0,9.94,0,9.94,0h0c-3.8,8.91-7,23.32-7,23.32a10,10,0,0,1-4.24,1.23c-2.87,0-6.29-3.85-6.29-3.85s1.55-5.4,2.93-10.48,2.82-10.24,2.82-10.24Z"/><path class="cls-77" d="M83.76,209.22,80,206.46a81.22,81.22,0,0,0-6.17,9.61c-2.17,4-7.43,18-7.43,20.07a.36.36,0,0,0,.06.25,4.11,4.11,0,0,0,2.29.61c1.44,0,6.2-4.46,6.57-4.88C76.65,230.55,83.76,209.22,83.76,209.22Z"/><path class="cls-81" d="M92.74,214.25a1.56,1.56,0,0,0-1.63-1.52h-.32c-1.89,0-7-3.57-7-3.57a53.47,53.47,0,0,0-6.54,8.19,63.32,63.32,0,0,0-4.84,10.82s2.75.88,2.75,3c0,.38-.07.54-.07.73s0,.19.11.19c.84,0,6.3-7.32,13.13-8.18Z"/><path class="cls-82" d="M109.84,223.71s-5.54-2.6-9.88-5.16-7.65-4.43-7.65-4.43a4.11,4.11,0,0,0-1.69-.37c-3,0-4.3,3.53-4.3,5.72a9.16,9.16,0,0,0,1.2,4.41,22.05,22.05,0,0,1,6.54,2.66c3.86,2.2,11,6.9,11,6.9Z"/><path class="cls-83" d="M241.74,178.06a1.82,1.82,0,0,1,.81.23h0l-3.18-2.92a25,25,0,0,0,1.21,3.49A1.39,1.39,0,0,1,241.74,178.06Z"/><path class="cls-83" d="M246.93,172c0-.85-2.28-2.29-3.44-2.29-.47,0-.63.24-.63.43,0,.78,2.3,2.32,3.46,2.32C246.74,172.44,246.93,172.22,246.93,172Z"/><path class="cls-84" d="M235,168.83a.61.61,0,0,1-.61-.61c0-.37.84-1.38.84-2.61,0-2.13-2.52-1.25-2.52-2.34a.59.59,0,0,1,.59-.6c.18,0,3.14.26,3.14,2.94a6.29,6.29,0,0,1-.91,2.91A.6.6,0,0,1,235,168.83Z"/><path class="cls-84" d="M233,167.2a.6.6,0,0,1-.6-.6c0-.43,1.46-2.4,2.8-2.4.52,0,1.23.32,1.23.85a.6.6,0,0,1-.6.6c-.36,0-.38-.24-.63-.24-.59,0-1.46,1.15-1.68,1.51A.62.62,0,0,1,233,167.2Z"/><path class="cls-83" d="M157,175.34s-1.22,1.67-3,4-2.55,3.33-2.55,3.33l-1.42-1.35a28.22,28.22,0,0,0,3.14-2.59,45.29,45.29,0,0,0,3.64-3.52Z"/><path class="cls-83" d="M292.37,195.24s-2.21,4.59-2.21,8.43a10.2,10.2,0,0,0,0,1.09l-2.85.15,4.84-9.69Z"/><path class="cls-85" d="M188.41,199.53c.09,0,13.34-6.77,13.34-6.77s-7.15,2.22-12.25,4.07-8.32,3.24-8.32,3.24S186.64,199.61,188.41,199.53Z"/><path class="cls-85" d="M233,184.42l-6.13-3.14s1.82,1.22,1.82,2.19c0,.33-.22.64-.81.86Z"/><path class="cls-85" d="M287.34,193.83l-7.25,13-2.41-.3s.73-.39,3.83-4.27A91.1,91.1,0,0,0,287.34,193.83Z"/><path class="cls-85" d="M160.67,177.4a115.49,115.49,0,0,0-6.19,10.08l-1.36-.92s1.68-2.26,3.56-4.55S160.67,177.4,160.67,177.4Z"/><path class="cls-82" d="M175.31,246.77a40.38,40.38,0,0,0,5.43-3.08c3.62-2.32,9-6.2,9-6.2s-9.16,9.08-12.67,14.12Z"/><path class="cls-86" d="M141.73,250.62c-.63,0-.66-.67-.66-.88a2.92,2.92,0,0,1,0-.36c0-2.4-29.36-16.1-29.36-16.28a.15.15,0,0,1,.15-.15c.12,0,29.51,13.86,29.51,16.45a3.13,3.13,0,0,0,0,.34c0,.47.18.58.37.58.65,0,2.07-1.28,2.49-2.74.25-.83.7-1,1.05-1,1,0,2,1.46,2.14,2.06,0,.06.15.06.15.06,8,0,33.68-29.28,34.16-29.28a.15.15,0,0,1,.15.15c0,.13-26.72,29.42-34.35,29.42a.38.38,0,0,1-.41-.29c-.12-.64-1.06-1.78-1.81-1.82h0c-.35,0-.6.27-.76.8C144.11,249.09,142.63,250.62,141.73,250.62Z"/><path class="cls-86" d="M190,297.68a.16.16,0,0,1-.16-.15c0-.12,5.81-19,5.81-20.32s-1.38-.72-1.38-2.12c0-1.95,2.93-.69,2.93-2.14,0-1.12-1.51-.5-1.75-2-.21-1.28-3.57-32.9-3.57-33a.15.15,0,0,1,.15-.15c.28,0,3.28,30.43,3.72,33.12.2,1.25,1.75.64,1.75,2,0,1.81-2.92.53-2.92,2.14,0,1.17,1.37.63,1.37,2.13C195.9,278.42,190.15,297.68,190,297.68Z"/><path class="cls-87" d="M191.31,337.67a.6.6,0,0,1-.61-.6,3.29,3.29,0,0,1,3.17-2.32c1.48,0,1.61.49,1.61.76a.6.6,0,0,1-.6.6,6.35,6.35,0,0,0-1-.15,2.18,2.18,0,0,0-2,1.34A.62.62,0,0,1,191.31,337.67Z"/><path class="cls-87" d="M189.31,335.87a.6.6,0,0,1-.61-.6,3.28,3.28,0,0,1,3.17-2.31c1.48,0,1.61.48,1.61.75a.6.6,0,0,1-.61.6,6.56,6.56,0,0,0-1-.14,2.21,2.21,0,0,0-2,1.33A.59.59,0,0,1,189.31,335.87Z"/><path class="cls-87" d="M187.06,334a.6.6,0,0,1-.6-.6,3.27,3.27,0,0,1,3.16-2.32c1.49,0,1.61.49,1.61.76a.61.61,0,0,1-.6.6,6.54,6.54,0,0,0-1-.15,2.19,2.19,0,0,0-2,1.34A.61.61,0,0,1,187.06,334Z"/><path class="cls-87" d="M185,331.51a.6.6,0,0,1-.6-.6,3.26,3.26,0,0,1,3.17-2.31c1.48,0,1.61.48,1.61.75a.61.61,0,0,1-.61.6,6.35,6.35,0,0,0-1-.15,2.21,2.21,0,0,0-2,1.34A.6.6,0,0,1,185,331.51Z"/><path class="cls-87" d="M76.71,231.44a.6.6,0,0,1-.6-.6,7.13,7.13,0,0,0,.12-1.05c0-2.33-1.68-2.12-1.68-2.94a.61.61,0,0,1,.6-.61c.65,0,2.28,1.37,2.28,3.56C77.43,231.17,77.13,231.44,76.71,231.44Z"/><path class="cls-87" d="M78.88,230a.61.61,0,0,1-.61-.61,7.12,7.12,0,0,0,.12-1c0-2.34-1.68-2.13-1.68-2.95a.61.61,0,0,1,.6-.61c.66,0,2.28,1.36,2.28,3.56C79.59,229.72,79.28,230,78.88,230Z"/><path class="cls-87" d="M81.28,228.06a.61.61,0,0,1-.61-.61,7.12,7.12,0,0,0,.12-1c0-2.34-1.68-2.13-1.68-2.95a.61.61,0,0,1,.61-.61c.64,0,2.28,1.36,2.28,3.56C82,227.78,81.69,228.06,81.28,228.06Z"/><path class="cls-87" d="M83.6,226.37a.6.6,0,0,1-.6-.6,7.34,7.34,0,0,0,.12-1.05c0-2.34-1.68-2.12-1.68-2.95a.61.61,0,0,1,.6-.6c.66,0,2.29,1.36,2.29,3.55C84.33,226.1,84,226.37,83.6,226.37Z"/><path class="cls-80" d="M203.8,271.51a5,5,0,0,1-.64,5.59l.06-1.43-1.61,1.87a8.48,8.48,0,0,0,.85-2.7,9.3,9.3,0,0,0-.8-2.54l1.5,1.09Z"/><path class="cls-80" d="M147.78,256.9s-2.61,1.74-3.82,1.74c-.84,0-3.59-1.79-3.59-1.79l2.12.27-1.35-1.86a4.68,4.68,0,0,0,2.81,1.35,2.48,2.48,0,0,0,2.06-1.34l-.74,2.16Z"/><path class="cls-77" d="M258.19,204.38l3.34.2,4.06.23-2.42-.66,1.85-.72s-.83-.05-1.78-.05c-1.44,0-1.48.09-2.27.09a28.67,28.67,0,0,1-3.2-.25l2.32.71Z"/><path class="cls-77" d="M177.33,199.71a6.48,6.48,0,0,1-1.87.65c-.51,0-1.37-1.18-1.9-1.49h0a1.4,1.4,0,0,1,.93.35l-.28-.89s.68,1,1.16,1,.8-.59.8-.59l-.13.8.93-.8-.3.8Z"/><path class="cls-88" d="M219.58,344.4c-1.81,0-39.92-1.64-64.21-1.64q-2.85,0-5.52,0h-.06c-4.26,0-11.31-6.75-11.31-8a1.2,1.2,0,0,1,2.11-.8c1.56,1.77,6.26,6.34,9.2,6.34.17,0,2.12,0,5.38,0,22.8,0,52.68,1.26,64.43,1.64.8-.08,3.51-2.63,5.78-5.47a1.2,1.2,0,0,1,2.15.75C227.53,338.15,222.18,344.4,219.58,344.4Z"/><path class="cls-88" d="M159.66,354.93a5.74,5.74,0,0,1-1.24-.13h0a3.24,3.24,0,0,1-2.67-3.35c0-3.32,3.79-8,8-8,1.75,0,4.55.93,4.55,3.8C168.31,350.73,163.89,354.93,159.66,354.93Zm-.74-2.49a3.55,3.55,0,0,0,.79.09c3.29,0,6.19-3.57,6.19-5.28,0-1.32-1.92-1.38-2.14-1.38-2.75,0-5.59,3.45-5.59,5.61a.83.83,0,0,0,.75,1Z"/><path class="cls-88" d="M203.32,356.49a5.83,5.83,0,0,1-1.25-.13h0a3.23,3.23,0,0,1-2.66-3.35c0-3.3,3.76-8,8-8,1.75,0,4.56.92,4.56,3.8C212,352.29,207.54,356.49,203.32,356.49Zm-.74-2.49a3.44,3.44,0,0,0,.78.08c3.3,0,6.2-3.56,6.2-5.27,0-1.32-1.93-1.39-2.14-1.39-2.76,0-5.59,3.46-5.59,5.62,0,.74.38.88.75,1Z"/></g></g></svg>